G04 #@! TF.FileFunction,Soldermask,Top*
%FSLAX46Y46*%
G04 Gerber Fmt 4.6, Leading zero omitted, Abs format (unit mm)*
G04 Created by KiCad (PCBNEW 4.0.5) date 09/03/17 12:17:55*
%MOMM*%
%LPD*%
G01*
G04 APERTURE LIST*
%ADD10C,0.100000*%
%ADD11O,1.640000X2.540000*%
%ADD12R,1.140000X1.040000*%
%ADD13R,1.040000X1.140000*%
%ADD14R,2.440000X2.040000*%
%ADD15R,1.640000X1.840000*%
%ADD16R,1.040000X1.040000*%
%ADD17R,1.390000X1.390000*%
%ADD18O,1.390000X1.390000*%
%ADD19R,1.640000X0.440000*%
%ADD20R,1.440000X0.340000*%
%ADD21C,2.340000*%
%ADD22C,1.840000*%
%ADD23C,3.040000*%
%ADD24R,1.540000X0.330000*%
%ADD25C,1.540000*%
%ADD26C,4.840000*%
%ADD27C,3.140000*%
%ADD28R,1.740000X0.340000*%
%ADD29R,0.340000X1.740000*%
%ADD30R,2.340000X0.590000*%
%ADD31R,0.590000X2.340000*%
%ADD32R,1.540000X2.240000*%
%ADD33O,1.540000X2.240000*%
%ADD34O,1.640000X7.240000*%
%ADD35C,0.254000*%
G04 APERTURE END LIST*
D10*
D11*
X22490000Y62380000D03*
X25030000Y62380000D03*
X27570000Y62380000D03*
X30110000Y62380000D03*
X32650000Y62380000D03*
X35190000Y62380000D03*
X37730000Y62380000D03*
X40270000Y62380000D03*
X42810000Y62380000D03*
X45350000Y62380000D03*
X47890000Y62380000D03*
X50430000Y62380000D03*
X52970000Y62380000D03*
X55510000Y62380000D03*
X55510000Y77620000D03*
X52970000Y77620000D03*
X50430000Y77620000D03*
X47890000Y77620000D03*
X45350000Y77620000D03*
X42810000Y77620000D03*
X40270000Y77620000D03*
X37730000Y77620000D03*
X35190000Y77620000D03*
X32650000Y77620000D03*
X30110000Y77620000D03*
X27570000Y77620000D03*
X25030000Y77620000D03*
X22490000Y77620000D03*
D12*
X11550000Y50500000D03*
X13250000Y50500000D03*
D13*
X2300000Y44950000D03*
X2300000Y43250000D03*
X2300000Y37450000D03*
X2300000Y35750000D03*
D12*
X10750000Y29500000D03*
X9050000Y29500000D03*
D13*
X23300000Y33350000D03*
X23300000Y35050000D03*
X23300000Y42050000D03*
X23300000Y43750000D03*
D12*
X16050000Y50500000D03*
X17750000Y50500000D03*
D13*
X2300000Y65950000D03*
X2300000Y64250000D03*
X11650000Y12900000D03*
X9950000Y12900000D03*
D12*
X36460000Y26150000D03*
X36460000Y24450000D03*
X33920000Y26150000D03*
X33920000Y24450000D03*
X31380000Y26150000D03*
X31380000Y24450000D03*
X28840000Y26150000D03*
X28840000Y24450000D03*
X21900000Y56350000D03*
X21900000Y54650000D03*
D14*
X39100000Y53100000D03*
X39100000Y57300000D03*
D15*
X1800000Y15900000D03*
X4800000Y15900000D03*
X4800000Y12900000D03*
X1800000Y12900000D03*
D13*
X20100000Y27650000D03*
X20100000Y29350000D03*
D12*
X13350000Y29500000D03*
X15050000Y29500000D03*
D13*
X19300000Y64550000D03*
X19300000Y62850000D03*
D16*
X34900000Y53917500D03*
X34900000Y55717500D03*
X36500000Y54600000D03*
X36500000Y56400000D03*
D12*
X34450000Y51300000D03*
X36150000Y51300000D03*
X34450000Y49300000D03*
X36150000Y49300000D03*
D13*
X20100000Y75650000D03*
X20100000Y77350000D03*
D12*
X23550000Y51300000D03*
X21850000Y51300000D03*
X23550000Y49300000D03*
X21850000Y49300000D03*
D13*
X29000000Y72650000D03*
X29000000Y70950000D03*
D12*
X44450000Y55700000D03*
X42750000Y55700000D03*
X46850000Y49500000D03*
X45150000Y49500000D03*
D13*
X2850000Y28400000D03*
X4550000Y28400000D03*
D17*
X25380000Y33000000D03*
D18*
X25380000Y35000000D03*
X27380000Y33000000D03*
X27380000Y35000000D03*
X29380000Y33000000D03*
X29380000Y35000000D03*
X31380000Y33000000D03*
X31380000Y35000000D03*
X33380000Y33000000D03*
X33380000Y35000000D03*
D11*
X22490000Y14380000D03*
X25030000Y14380000D03*
X27570000Y14380000D03*
X30110000Y14380000D03*
X32650000Y14380000D03*
X35190000Y14380000D03*
X37730000Y14380000D03*
X40270000Y14380000D03*
X42810000Y14380000D03*
X45350000Y14380000D03*
X47890000Y14380000D03*
X50430000Y14380000D03*
X52970000Y14380000D03*
X55510000Y14380000D03*
X55510000Y29620000D03*
X52970000Y29620000D03*
X50430000Y29620000D03*
X47890000Y29620000D03*
X45350000Y29620000D03*
X42810000Y29620000D03*
X40270000Y29620000D03*
X37730000Y29620000D03*
X35190000Y29620000D03*
X32650000Y29620000D03*
X30110000Y29620000D03*
X27570000Y29620000D03*
X25030000Y29620000D03*
X22490000Y29620000D03*
D19*
X31750000Y54817500D03*
X31750000Y55452500D03*
X31750000Y56087500D03*
X31750000Y56722500D03*
X31750000Y57357500D03*
X31750000Y57992500D03*
X31750000Y58627500D03*
X26250000Y58627500D03*
X26250000Y57992500D03*
X26250000Y57357500D03*
X26250000Y56722500D03*
X26250000Y56087500D03*
X26250000Y55452500D03*
X26250000Y54817500D03*
X26250000Y54182500D03*
X26250000Y53547500D03*
X26250000Y52912500D03*
X26250000Y52277500D03*
X26250000Y51642500D03*
X26250000Y51007500D03*
X26250000Y50372500D03*
X31750000Y50372500D03*
X31750000Y51007500D03*
X31750000Y51642500D03*
X31750000Y52277500D03*
X31750000Y52912500D03*
X31750000Y53547500D03*
X31750000Y54182500D03*
D20*
X32400000Y73575000D03*
X32400000Y73025000D03*
X32400000Y72475000D03*
X32400000Y71925000D03*
X32400000Y71375000D03*
X32400000Y70825000D03*
X32400000Y70275000D03*
X32400000Y69725000D03*
X32400000Y69175000D03*
X32400000Y68625000D03*
X32400000Y68075000D03*
X32400000Y67525000D03*
X32400000Y66975000D03*
X32400000Y66425000D03*
X45600000Y66425000D03*
X45600000Y66975000D03*
X45600000Y67525000D03*
X45600000Y68075000D03*
X45600000Y68625000D03*
X45600000Y69175000D03*
X45600000Y69725000D03*
X45600000Y70275000D03*
X45600000Y70825000D03*
X45600000Y71375000D03*
X45600000Y71925000D03*
X45600000Y72475000D03*
X45600000Y73025000D03*
X45600000Y73575000D03*
D21*
X15750000Y77300000D03*
D22*
X14500000Y79800000D03*
X10000000Y79800000D03*
D21*
X8750000Y77300000D03*
D23*
X51810000Y46600000D03*
X48000000Y57160000D03*
X48000000Y36040000D03*
X44190000Y46600000D03*
D12*
X51700000Y50250000D03*
X51700000Y51950000D03*
X53600000Y51950000D03*
X53600000Y50250000D03*
D24*
X43650000Y53200000D03*
X43650000Y52700000D03*
X43650000Y52200000D03*
X43650000Y51700000D03*
X43650000Y51200000D03*
X48350000Y51200000D03*
X48350000Y51700000D03*
X48350000Y52200000D03*
X48350000Y52700000D03*
X48350000Y53200000D03*
D25*
X2700000Y39300000D03*
D26*
X29000000Y43000000D03*
D27*
X29000000Y45800000D03*
D28*
X5000000Y46000000D03*
X5000000Y45500000D03*
X5000000Y45000000D03*
X5000000Y44500000D03*
X5000000Y44000000D03*
X5000000Y43500000D03*
X5000000Y43000000D03*
X5000000Y42500000D03*
X5000000Y42000000D03*
X5000000Y41500000D03*
X5000000Y41000000D03*
X5000000Y40500000D03*
X5000000Y40000000D03*
X5000000Y39500000D03*
X5000000Y39000000D03*
X5000000Y38500000D03*
X5000000Y38000000D03*
X5000000Y37500000D03*
X5000000Y37000000D03*
X5000000Y36500000D03*
X5000000Y36000000D03*
X5000000Y35500000D03*
X5000000Y35000000D03*
X5000000Y34500000D03*
X5000000Y34000000D03*
D29*
X6800000Y32200000D03*
X7300000Y32200000D03*
X7800000Y32200000D03*
X8300000Y32200000D03*
X8800000Y32200000D03*
X9300000Y32200000D03*
X9800000Y32200000D03*
X10300000Y32200000D03*
X10800000Y32200000D03*
X11300000Y32200000D03*
X11800000Y32200000D03*
X12300000Y32200000D03*
X12800000Y32200000D03*
X13300000Y32200000D03*
X13800000Y32200000D03*
X14300000Y32200000D03*
X14800000Y32200000D03*
X15300000Y32200000D03*
X15800000Y32200000D03*
X16300000Y32200000D03*
X16800000Y32200000D03*
X17300000Y32200000D03*
X17800000Y32200000D03*
X18300000Y32200000D03*
X18800000Y32200000D03*
D28*
X20600000Y34000000D03*
X20600000Y34500000D03*
X20600000Y35000000D03*
X20600000Y35500000D03*
X20600000Y36000000D03*
X20600000Y36500000D03*
X20600000Y37000000D03*
X20600000Y37500000D03*
X20600000Y38000000D03*
X20600000Y38500000D03*
X20600000Y39000000D03*
X20600000Y39500000D03*
X20600000Y40000000D03*
X20600000Y40500000D03*
X20600000Y41000000D03*
X20600000Y41500000D03*
X20600000Y42000000D03*
X20600000Y42500000D03*
X20600000Y43000000D03*
X20600000Y43500000D03*
X20600000Y44000000D03*
X20600000Y44500000D03*
X20600000Y45000000D03*
X20600000Y45500000D03*
X20600000Y46000000D03*
D29*
X18800000Y47800000D03*
X18300000Y47800000D03*
X17800000Y47800000D03*
X17300000Y47800000D03*
X16800000Y47800000D03*
X16300000Y47800000D03*
X15800000Y47800000D03*
X15300000Y47800000D03*
X14800000Y47800000D03*
X14300000Y47800000D03*
X13800000Y47800000D03*
X13300000Y47800000D03*
X12800000Y47800000D03*
X12300000Y47800000D03*
X11800000Y47800000D03*
X11300000Y47800000D03*
X10800000Y47800000D03*
X10300000Y47800000D03*
X9800000Y47800000D03*
X9300000Y47800000D03*
X8800000Y47800000D03*
X8300000Y47800000D03*
X7800000Y47800000D03*
X7300000Y47800000D03*
X6800000Y47800000D03*
D30*
X4700000Y66100000D03*
X4700000Y65300000D03*
X4700000Y64500000D03*
X4700000Y63700000D03*
X4700000Y62900000D03*
X4700000Y62100000D03*
X4700000Y61300000D03*
X4700000Y60500000D03*
X4700000Y59700000D03*
X4700000Y58900000D03*
X4700000Y58100000D03*
D31*
X6800000Y56000000D03*
X7600000Y56000000D03*
X8400000Y56000000D03*
X9200000Y56000000D03*
X10000000Y56000000D03*
X10800000Y56000000D03*
X11600000Y56000000D03*
X12400000Y56000000D03*
X13200000Y56000000D03*
X14000000Y56000000D03*
X14800000Y56000000D03*
D30*
X16900000Y58100000D03*
X16900000Y58900000D03*
X16900000Y59700000D03*
X16900000Y60500000D03*
X16900000Y61300000D03*
X16900000Y62100000D03*
X16900000Y62900000D03*
X16900000Y63700000D03*
X16900000Y64500000D03*
X16900000Y65300000D03*
X16900000Y66100000D03*
D31*
X14800000Y68200000D03*
X14000000Y68200000D03*
X13200000Y68200000D03*
X12400000Y68200000D03*
X11600000Y68200000D03*
X10800000Y68200000D03*
X10000000Y68200000D03*
X9200000Y68200000D03*
X8400000Y68200000D03*
X7600000Y68200000D03*
X6800000Y68200000D03*
D13*
X4550000Y24200000D03*
X2850000Y24200000D03*
X14550000Y71500000D03*
X16250000Y71500000D03*
X14550000Y73200000D03*
X16250000Y73200000D03*
X6350000Y73200000D03*
X4650000Y73200000D03*
X6350000Y71500000D03*
X4650000Y71500000D03*
D32*
X9960000Y17090000D03*
D33*
X12500000Y17090000D03*
X15040000Y17090000D03*
X15040000Y24710000D03*
X12500000Y24710000D03*
X9960000Y24710000D03*
D34*
X2330000Y4300000D03*
X4870000Y4300000D03*
X7410000Y4300000D03*
X9950000Y4300000D03*
X12490000Y4300000D03*
X15030000Y4300000D03*
X17570000Y4300000D03*
X20110000Y4300000D03*
X22650000Y4300000D03*
X25190000Y4300000D03*
X27730000Y4300000D03*
X30270000Y4300000D03*
X32810000Y4300000D03*
X35350000Y4300000D03*
X37890000Y4300000D03*
X40430000Y4300000D03*
X42970000Y4300000D03*
X45510000Y4300000D03*
X48050000Y4300000D03*
X50590000Y4300000D03*
X53130000Y4300000D03*
X55670000Y4300000D03*
D35*
G36*
X57823000Y978559D02*
X57419630Y127000D01*
X580370Y127000D01*
X177000Y978559D01*
X177000Y8073000D01*
X57823000Y8073000D01*
X57823000Y978559D01*
X57823000Y978559D01*
G37*
X57823000Y978559D02*
X57419630Y127000D01*
X580370Y127000D01*
X177000Y978559D01*
X177000Y8073000D01*
X57823000Y8073000D01*
X57823000Y978559D01*
M02*
