G04 #@! TF.FileFunction,Profile,NP*
%FSLAX46Y46*%
G04 Gerber Fmt 4.6, Leading zero omitted, Abs format (unit mm)*
G04 Created by KiCad (PCBNEW 4.0.5) date 09/03/17 12:17:55*
%MOMM*%
%LPD*%
G01*
G04 APERTURE LIST*
%ADD10C,0.100000*%
G04 APERTURE END LIST*
D10*
X0Y80300000D02*
X0Y84000000D01*
X0Y23100000D02*
X0Y67600000D01*
X200000Y80100000D02*
X0Y80300000D01*
X200000Y67800000D02*
X200000Y80100000D01*
X0Y67600000D02*
X200000Y67800000D01*
X200000Y22900000D02*
X0Y23100000D01*
X200000Y10600000D02*
X200000Y22900000D01*
X50000Y10450000D02*
X200000Y10600000D01*
X58000000Y80300000D02*
X58000000Y84000000D01*
X58000000Y67600000D02*
X58000000Y23100000D01*
X57800000Y67800000D02*
X58000000Y67600000D01*
X57800000Y80100000D02*
X57800000Y67800000D01*
X58000000Y80300000D02*
X57800000Y80100000D01*
X57800000Y10600000D02*
X57950000Y10450000D01*
X57800000Y22900000D02*
X57800000Y10600000D01*
X58000000Y23100000D02*
X57800000Y22900000D01*
X57950000Y950000D02*
X57500000Y0D01*
X50000Y950000D02*
X500000Y0D01*
X0Y84000000D02*
X58000000Y84000000D01*
X500000Y0D02*
X57500000Y0D01*
X57950000Y950000D02*
X57950000Y10450000D01*
X50000Y950000D02*
X50000Y10450000D01*
M02*
