M48
;DRILL file {KiCad 4.0.5} date 09/03/17 12:17:59
;FORMAT={-:-/ absolute / metric / decimal}
FMAT,2
METRIC,TZ
T1C0.300
T2C0.400
T3C0.800
T4C1.000
T5C1.300
T6C1.700
%
G90
G05
M71
T1
X2.5Y31.4
X2.5Y22.4
X3.8Y33.
X4.Y49.6
X5.3Y31.
X5.3Y29.6
X6.7Y66.1
X6.7Y63.8
X6.7Y62.8
X6.7Y42.
X6.7Y38.5
X6.7Y36.4
X8.3Y37.9
X9.Y66.2
X9.Y39.1
X9.1Y54.2
X9.3Y64.3
X9.3Y63.3
X9.6Y11.6
X9.7Y38.5
X10.Y66.2
X10.1Y62.9
X10.1Y54.2
X10.2Y52.8
X10.4Y39.1
X10.8Y63.6
X11.Y66.2
X11.1Y38.5
X11.23Y22.1
X11.8Y46.2
X11.8Y39.1
X11.8Y11.2
X12.1Y71.1
X12.4Y54.2
X12.4Y49.4
X12.5Y38.5
X12.6Y45.6
X12.7Y66.2
X13.Y63.2
X13.Y11.2
X13.2Y39.1
X13.2Y34.
X13.6Y66.2
X14.Y53.7
X14.3Y62.5
X14.3Y61.1
X14.3Y59.7
X14.3Y58.3
X14.3Y34.
X14.8Y63.2
X14.8Y61.8
X14.8Y60.4
X14.8Y59.
X14.8Y45.9
X15.8Y45.9
X16.8Y45.9
X17.3Y33.9
X17.3Y30.5
X17.4Y43.6
X17.4Y37.4
X17.4Y36.1
X17.6Y79.6
X17.6Y20.3
X17.8Y45.9
X18.3Y33.9
X18.5Y19.5
X18.7Y40.5
X19.9Y20.3
X20.Y79.7
X22.2Y34.2
X22.3Y65.
X23.7Y65.
X25.19Y10.7
X26.6Y10.7
X27.1Y68.6
X27.7Y57.992
X27.7Y56.722
X27.7Y52.277
X27.7Y50.372
X28.5Y68.
X29.4Y68.
X30.3Y57.357
X30.3Y52.912
X30.3Y50.372
X31.38Y10.9
X31.4Y20.8
X33.4Y52.2
X33.5Y56.722
X33.8Y70.2
X34.4Y70.9
X35.2Y22.
X36.Y71.8
X36.4Y72.6
X37.8Y64.5
X38.8Y64.8
X39.Y60.1
X39.Y25.1
X39.Y23.8
X39.6Y71.4
X39.6Y69.9
X40.5Y71.4
X40.5Y69.9
X41.Y64.9
X41.3Y59.7
X41.4Y71.4
X41.6Y69.9
X42.6Y70.1
X42.8Y64.9
X43.4Y72.1
X43.4Y70.85
X44.08Y25.8
X45.35Y26.7
X45.5Y59.5
X46.3Y64.9
X47.89Y18.3
X47.9Y74.1
X47.9Y72.7
X48.6Y73.4
X49.16Y26.7
X49.8Y68.4
X50.43Y25.8
X50.43Y18.3
X52.97Y18.3
X54.Y73.9
T2
X1.8Y17.4
X1.8Y14.4
X1.8Y10.5
X2.3Y66.95
X2.3Y42.25
X2.3Y34.75
X2.8Y21.
X3.4Y41.
X3.8Y21.
X6.7Y40.8
X7.2Y37.5
X7.4Y34.1
X8.05Y29.5
X9.3Y46.2
X10.6Y57.9
X10.8Y72.
X10.8Y70.2
X11.3Y43.6
X11.8Y57.9
X12.05Y30.35
X13.05Y40.8
X13.8Y49.4
X14.25Y50.5
X14.4Y43.6
X15.3Y30.6
X16.05Y29.5
X16.1Y40.8
X18.75Y50.5
X18.9Y45.9
X19.Y38.
X19.3Y61.85
X20.1Y74.65
X20.1Y26.65
X20.8Y17.
X21.6Y17.
X21.85Y52.3
X21.85Y50.3
X21.85Y48.3
X22.2Y45.5
X23.3Y44.75
X23.3Y36.05
X24.4Y56.8
X24.4Y55.453
X24.6Y17.
X25.4Y17.
X27.3Y74.9
X27.5Y17.
X28.3Y17.
X29.Y73.7
X30.3Y55.453
X36.15Y52.3
X36.15Y50.3
X36.15Y48.3
X40.1Y37.2
X40.1Y32.8
X42.75Y54.5
X43.25Y58.85
X48.4Y69.7
X49.16Y60.4
X49.2Y69.7
X52.8Y69.7
X53.6Y69.7
X56.2Y10.5
T3
X9.96Y24.71
X9.96Y17.09
X12.5Y24.71
X12.5Y17.09
X15.04Y24.71
X15.04Y17.09
X22.49Y77.62
X22.49Y62.38
X22.49Y29.62
X22.49Y14.38
X25.03Y77.62
X25.03Y62.38
X25.03Y29.62
X25.03Y14.38
X25.38Y35.
X25.38Y33.
X27.38Y35.
X27.38Y33.
X27.57Y77.62
X27.57Y62.38
X27.57Y29.62
X27.57Y14.38
X29.38Y35.
X29.38Y33.
X30.11Y77.62
X30.11Y62.38
X30.11Y29.62
X30.11Y14.38
X31.38Y35.
X31.38Y33.
X32.65Y77.62
X32.65Y62.38
X32.65Y29.62
X32.65Y14.38
X33.38Y35.
X33.38Y33.
X35.19Y77.62
X35.19Y62.38
X35.19Y29.62
X35.19Y14.38
X37.73Y77.62
X37.73Y62.38
X37.73Y29.62
X37.73Y14.38
X40.27Y77.62
X40.27Y62.38
X40.27Y29.62
X40.27Y14.38
X42.81Y77.62
X42.81Y62.38
X42.81Y29.62
X42.81Y14.38
X45.35Y77.62
X45.35Y62.38
X45.35Y29.62
X45.35Y14.38
X47.89Y77.62
X47.89Y62.38
X47.89Y29.62
X47.89Y14.38
X50.43Y77.62
X50.43Y62.38
X50.43Y29.62
X50.43Y14.38
X52.97Y77.62
X52.97Y62.38
X52.97Y29.62
X52.97Y14.38
X55.51Y77.62
X55.51Y62.38
X55.51Y29.62
X55.51Y14.38
T4
X10.Y79.8
X14.5Y79.8
T5
X8.75Y77.3
X15.75Y77.3
T6
X44.19Y46.6
X51.81Y46.6
T0
M30
