G04 #@! TF.FileFunction,Soldermask,Bot*
%FSLAX46Y46*%
G04 Gerber Fmt 4.6, Leading zero omitted, Abs format (unit mm)*
G04 Created by KiCad (PCBNEW 4.0.5) date 09/03/17 12:17:55*
%MOMM*%
%LPD*%
G01*
G04 APERTURE LIST*
%ADD10C,0.100000*%
%ADD11O,1.640000X2.540000*%
%ADD12R,1.390000X1.390000*%
%ADD13O,1.390000X1.390000*%
%ADD14C,2.340000*%
%ADD15C,1.840000*%
%ADD16C,3.040000*%
%ADD17C,4.840000*%
%ADD18C,3.140000*%
%ADD19R,1.540000X2.240000*%
%ADD20O,1.540000X2.240000*%
%ADD21O,1.640000X7.240000*%
%ADD22C,0.254000*%
G04 APERTURE END LIST*
D10*
D11*
X22490000Y62380000D03*
X25030000Y62380000D03*
X27570000Y62380000D03*
X30110000Y62380000D03*
X32650000Y62380000D03*
X35190000Y62380000D03*
X37730000Y62380000D03*
X40270000Y62380000D03*
X42810000Y62380000D03*
X45350000Y62380000D03*
X47890000Y62380000D03*
X50430000Y62380000D03*
X52970000Y62380000D03*
X55510000Y62380000D03*
X55510000Y77620000D03*
X52970000Y77620000D03*
X50430000Y77620000D03*
X47890000Y77620000D03*
X45350000Y77620000D03*
X42810000Y77620000D03*
X40270000Y77620000D03*
X37730000Y77620000D03*
X35190000Y77620000D03*
X32650000Y77620000D03*
X30110000Y77620000D03*
X27570000Y77620000D03*
X25030000Y77620000D03*
X22490000Y77620000D03*
D12*
X25380000Y33000000D03*
D13*
X25380000Y35000000D03*
X27380000Y33000000D03*
X27380000Y35000000D03*
X29380000Y33000000D03*
X29380000Y35000000D03*
X31380000Y33000000D03*
X31380000Y35000000D03*
X33380000Y33000000D03*
X33380000Y35000000D03*
D11*
X22490000Y14380000D03*
X25030000Y14380000D03*
X27570000Y14380000D03*
X30110000Y14380000D03*
X32650000Y14380000D03*
X35190000Y14380000D03*
X37730000Y14380000D03*
X40270000Y14380000D03*
X42810000Y14380000D03*
X45350000Y14380000D03*
X47890000Y14380000D03*
X50430000Y14380000D03*
X52970000Y14380000D03*
X55510000Y14380000D03*
X55510000Y29620000D03*
X52970000Y29620000D03*
X50430000Y29620000D03*
X47890000Y29620000D03*
X45350000Y29620000D03*
X42810000Y29620000D03*
X40270000Y29620000D03*
X37730000Y29620000D03*
X35190000Y29620000D03*
X32650000Y29620000D03*
X30110000Y29620000D03*
X27570000Y29620000D03*
X25030000Y29620000D03*
X22490000Y29620000D03*
D14*
X15750000Y77300000D03*
D15*
X14500000Y79800000D03*
X10000000Y79800000D03*
D14*
X8750000Y77300000D03*
D16*
X51810000Y46600000D03*
X44190000Y46600000D03*
D17*
X29000000Y43000000D03*
D18*
X29000000Y45800000D03*
D19*
X9960000Y17090000D03*
D20*
X12500000Y17090000D03*
X15040000Y17090000D03*
X15040000Y24710000D03*
X12500000Y24710000D03*
X9960000Y24710000D03*
D21*
X2330000Y4300000D03*
X4870000Y4300000D03*
X7410000Y4300000D03*
X9950000Y4300000D03*
X12490000Y4300000D03*
X15030000Y4300000D03*
X17570000Y4300000D03*
X20110000Y4300000D03*
X22650000Y4300000D03*
X25190000Y4300000D03*
X27730000Y4300000D03*
X30270000Y4300000D03*
X32810000Y4300000D03*
X35350000Y4300000D03*
X37890000Y4300000D03*
X40430000Y4300000D03*
X42970000Y4300000D03*
X45510000Y4300000D03*
X48050000Y4300000D03*
X50590000Y4300000D03*
X53130000Y4300000D03*
X55670000Y4300000D03*
D22*
G36*
X57823000Y978559D02*
X57419630Y127000D01*
X580370Y127000D01*
X177000Y978559D01*
X177000Y8073000D01*
X57823000Y8073000D01*
X57823000Y978559D01*
X57823000Y978559D01*
G37*
X57823000Y978559D02*
X57419630Y127000D01*
X580370Y127000D01*
X177000Y978559D01*
X177000Y8073000D01*
X57823000Y8073000D01*
X57823000Y978559D01*
M02*
