G04 #@! TF.FileFunction,Copper,L1,Top,Signal*
%FSLAX46Y46*%
G04 Gerber Fmt 4.6, Leading zero omitted, Abs format (unit mm)*
G04 Created by KiCad (PCBNEW 4.0.5) date 07/23/17 13:02:27*
%MOMM*%
%LPD*%
G01*
G04 APERTURE LIST*
%ADD10C,0.100000*%
%ADD11O,1.600000X2.500000*%
%ADD12R,1.100000X1.000000*%
%ADD13R,1.000000X1.100000*%
%ADD14R,2.400000X2.000000*%
%ADD15R,1.600000X1.800000*%
%ADD16R,1.000000X1.000000*%
%ADD17R,1.350000X1.350000*%
%ADD18O,1.350000X1.350000*%
%ADD19R,1.600000X0.400000*%
%ADD20R,1.400000X0.300000*%
%ADD21C,2.300000*%
%ADD22C,1.800000*%
%ADD23C,3.000000*%
%ADD24R,1.500000X0.290000*%
%ADD25C,1.500000*%
%ADD26R,1.700000X0.300000*%
%ADD27R,0.300000X1.700000*%
%ADD28R,2.300000X0.550000*%
%ADD29R,0.550000X2.300000*%
%ADD30R,1.500000X2.200000*%
%ADD31O,1.500000X2.200000*%
%ADD32O,1.600000X7.200000*%
%ADD33C,0.600000*%
%ADD34C,0.800000*%
%ADD35C,0.700000*%
%ADD36C,0.250000*%
%ADD37C,0.800000*%
%ADD38C,1.000000*%
%ADD39C,0.290000*%
%ADD40C,0.600000*%
%ADD41C,0.400000*%
%ADD42C,0.280000*%
%ADD43C,0.300000*%
%ADD44C,0.550000*%
%ADD45C,0.500000*%
%ADD46C,0.200000*%
G04 APERTURE END LIST*
D10*
D11*
X22490000Y62380000D03*
X25030000Y62380000D03*
X27570000Y62380000D03*
X30110000Y62380000D03*
X32650000Y62380000D03*
X35190000Y62380000D03*
X37730000Y62380000D03*
X40270000Y62380000D03*
X42810000Y62380000D03*
X45350000Y62380000D03*
X47890000Y62380000D03*
X50430000Y62380000D03*
X52970000Y62380000D03*
X55510000Y62380000D03*
X55510000Y77620000D03*
X52970000Y77620000D03*
X50430000Y77620000D03*
X47890000Y77620000D03*
X45350000Y77620000D03*
X42810000Y77620000D03*
X40270000Y77620000D03*
X37730000Y77620000D03*
X35190000Y77620000D03*
X32650000Y77620000D03*
X30110000Y77620000D03*
X27570000Y77620000D03*
X25030000Y77620000D03*
X22490000Y77620000D03*
D12*
X11550000Y50500000D03*
X13250000Y50500000D03*
D13*
X2300000Y44950000D03*
X2300000Y43250000D03*
X2300000Y37450000D03*
X2300000Y35750000D03*
D12*
X10750000Y29500000D03*
X9050000Y29500000D03*
D13*
X23300000Y33350000D03*
X23300000Y35050000D03*
X23300000Y42050000D03*
X23300000Y43750000D03*
D12*
X16050000Y50500000D03*
X17750000Y50500000D03*
D13*
X2300000Y65950000D03*
X2300000Y64250000D03*
X11650000Y12900000D03*
X9950000Y12900000D03*
D12*
X36460000Y26150000D03*
X36460000Y24450000D03*
X33920000Y26150000D03*
X33920000Y24450000D03*
X31380000Y26150000D03*
X31380000Y24450000D03*
X28840000Y26150000D03*
X28840000Y24450000D03*
X21900000Y56350000D03*
X21900000Y54650000D03*
D14*
X39100000Y53100000D03*
X39100000Y57300000D03*
D15*
X1800000Y15900000D03*
X4800000Y15900000D03*
X4800000Y12900000D03*
X1800000Y12900000D03*
D13*
X20100000Y27650000D03*
X20100000Y29350000D03*
D12*
X13350000Y29500000D03*
X15050000Y29500000D03*
D13*
X19300000Y64550000D03*
X19300000Y62850000D03*
D16*
X34900000Y53917500D03*
X34900000Y55717500D03*
X36500000Y54600000D03*
X36500000Y56400000D03*
D12*
X34450000Y51300000D03*
X36150000Y51300000D03*
X34450000Y49300000D03*
X36150000Y49300000D03*
D13*
X20100000Y75650000D03*
X20100000Y77350000D03*
D12*
X23550000Y51300000D03*
X21850000Y51300000D03*
X23550000Y49300000D03*
X21850000Y49300000D03*
D13*
X29000000Y72650000D03*
X29000000Y70950000D03*
D12*
X44450000Y55700000D03*
X42750000Y55700000D03*
X46850000Y49500000D03*
X45150000Y49500000D03*
D13*
X2850000Y28400000D03*
X4550000Y28400000D03*
D17*
X25380000Y33000000D03*
D18*
X25380000Y35000000D03*
X27380000Y33000000D03*
X27380000Y35000000D03*
X29380000Y33000000D03*
X29380000Y35000000D03*
X31380000Y33000000D03*
X31380000Y35000000D03*
X33380000Y33000000D03*
X33380000Y35000000D03*
D11*
X22490000Y14380000D03*
X25030000Y14380000D03*
X27570000Y14380000D03*
X30110000Y14380000D03*
X32650000Y14380000D03*
X35190000Y14380000D03*
X37730000Y14380000D03*
X40270000Y14380000D03*
X42810000Y14380000D03*
X45350000Y14380000D03*
X47890000Y14380000D03*
X50430000Y14380000D03*
X52970000Y14380000D03*
X55510000Y14380000D03*
X55510000Y29620000D03*
X52970000Y29620000D03*
X50430000Y29620000D03*
X47890000Y29620000D03*
X45350000Y29620000D03*
X42810000Y29620000D03*
X40270000Y29620000D03*
X37730000Y29620000D03*
X35190000Y29620000D03*
X32650000Y29620000D03*
X30110000Y29620000D03*
X27570000Y29620000D03*
X25030000Y29620000D03*
X22490000Y29620000D03*
D19*
X31750000Y54817500D03*
X31750000Y55452500D03*
X31750000Y56087500D03*
X31750000Y56722500D03*
X31750000Y57357500D03*
X31750000Y57992500D03*
X31750000Y58627500D03*
X26250000Y58627500D03*
X26250000Y57992500D03*
X26250000Y57357500D03*
X26250000Y56722500D03*
X26250000Y56087500D03*
X26250000Y55452500D03*
X26250000Y54817500D03*
X26250000Y54182500D03*
X26250000Y53547500D03*
X26250000Y52912500D03*
X26250000Y52277500D03*
X26250000Y51642500D03*
X26250000Y51007500D03*
X26250000Y50372500D03*
X31750000Y50372500D03*
X31750000Y51007500D03*
X31750000Y51642500D03*
X31750000Y52277500D03*
X31750000Y52912500D03*
X31750000Y53547500D03*
X31750000Y54182500D03*
D20*
X32400000Y73575000D03*
X32400000Y73025000D03*
X32400000Y72475000D03*
X32400000Y71925000D03*
X32400000Y71375000D03*
X32400000Y70825000D03*
X32400000Y70275000D03*
X32400000Y69725000D03*
X32400000Y69175000D03*
X32400000Y68625000D03*
X32400000Y68075000D03*
X32400000Y67525000D03*
X32400000Y66975000D03*
X32400000Y66425000D03*
X45600000Y66425000D03*
X45600000Y66975000D03*
X45600000Y67525000D03*
X45600000Y68075000D03*
X45600000Y68625000D03*
X45600000Y69175000D03*
X45600000Y69725000D03*
X45600000Y70275000D03*
X45600000Y70825000D03*
X45600000Y71375000D03*
X45600000Y71925000D03*
X45600000Y72475000D03*
X45600000Y73025000D03*
X45600000Y73575000D03*
D21*
X15750000Y77300000D03*
D22*
X14500000Y79800000D03*
X10000000Y79800000D03*
D21*
X8750000Y77300000D03*
D23*
X51810000Y46600000D03*
X48000000Y57160000D03*
X48000000Y36040000D03*
X44190000Y46600000D03*
D12*
X51700000Y50250000D03*
X51700000Y51950000D03*
X53600000Y51950000D03*
X53600000Y50250000D03*
D24*
X43650000Y53200000D03*
X43650000Y52700000D03*
X43650000Y52200000D03*
X43650000Y51700000D03*
X43650000Y51200000D03*
X48350000Y51200000D03*
X48350000Y51700000D03*
X48350000Y52200000D03*
X48350000Y52700000D03*
X48350000Y53200000D03*
D25*
X2700000Y39300000D03*
D26*
X5000000Y46000000D03*
X5000000Y45500000D03*
X5000000Y45000000D03*
X5000000Y44500000D03*
X5000000Y44000000D03*
X5000000Y43500000D03*
X5000000Y43000000D03*
X5000000Y42500000D03*
X5000000Y42000000D03*
X5000000Y41500000D03*
X5000000Y41000000D03*
X5000000Y40500000D03*
X5000000Y40000000D03*
X5000000Y39500000D03*
X5000000Y39000000D03*
X5000000Y38500000D03*
X5000000Y38000000D03*
X5000000Y37500000D03*
X5000000Y37000000D03*
X5000000Y36500000D03*
X5000000Y36000000D03*
X5000000Y35500000D03*
X5000000Y35000000D03*
X5000000Y34500000D03*
X5000000Y34000000D03*
D27*
X6800000Y32200000D03*
X7300000Y32200000D03*
X7800000Y32200000D03*
X8300000Y32200000D03*
X8800000Y32200000D03*
X9300000Y32200000D03*
X9800000Y32200000D03*
X10300000Y32200000D03*
X10800000Y32200000D03*
X11300000Y32200000D03*
X11800000Y32200000D03*
X12300000Y32200000D03*
X12800000Y32200000D03*
X13300000Y32200000D03*
X13800000Y32200000D03*
X14300000Y32200000D03*
X14800000Y32200000D03*
X15300000Y32200000D03*
X15800000Y32200000D03*
X16300000Y32200000D03*
X16800000Y32200000D03*
X17300000Y32200000D03*
X17800000Y32200000D03*
X18300000Y32200000D03*
X18800000Y32200000D03*
D26*
X20600000Y34000000D03*
X20600000Y34500000D03*
X20600000Y35000000D03*
X20600000Y35500000D03*
X20600000Y36000000D03*
X20600000Y36500000D03*
X20600000Y37000000D03*
X20600000Y37500000D03*
X20600000Y38000000D03*
X20600000Y38500000D03*
X20600000Y39000000D03*
X20600000Y39500000D03*
X20600000Y40000000D03*
X20600000Y40500000D03*
X20600000Y41000000D03*
X20600000Y41500000D03*
X20600000Y42000000D03*
X20600000Y42500000D03*
X20600000Y43000000D03*
X20600000Y43500000D03*
X20600000Y44000000D03*
X20600000Y44500000D03*
X20600000Y45000000D03*
X20600000Y45500000D03*
X20600000Y46000000D03*
D27*
X18800000Y47800000D03*
X18300000Y47800000D03*
X17800000Y47800000D03*
X17300000Y47800000D03*
X16800000Y47800000D03*
X16300000Y47800000D03*
X15800000Y47800000D03*
X15300000Y47800000D03*
X14800000Y47800000D03*
X14300000Y47800000D03*
X13800000Y47800000D03*
X13300000Y47800000D03*
X12800000Y47800000D03*
X12300000Y47800000D03*
X11800000Y47800000D03*
X11300000Y47800000D03*
X10800000Y47800000D03*
X10300000Y47800000D03*
X9800000Y47800000D03*
X9300000Y47800000D03*
X8800000Y47800000D03*
X8300000Y47800000D03*
X7800000Y47800000D03*
X7300000Y47800000D03*
X6800000Y47800000D03*
D28*
X4700000Y66100000D03*
X4700000Y65300000D03*
X4700000Y64500000D03*
X4700000Y63700000D03*
X4700000Y62900000D03*
X4700000Y62100000D03*
X4700000Y61300000D03*
X4700000Y60500000D03*
X4700000Y59700000D03*
X4700000Y58900000D03*
X4700000Y58100000D03*
D29*
X6800000Y56000000D03*
X7600000Y56000000D03*
X8400000Y56000000D03*
X9200000Y56000000D03*
X10000000Y56000000D03*
X10800000Y56000000D03*
X11600000Y56000000D03*
X12400000Y56000000D03*
X13200000Y56000000D03*
X14000000Y56000000D03*
X14800000Y56000000D03*
D28*
X16900000Y58100000D03*
X16900000Y58900000D03*
X16900000Y59700000D03*
X16900000Y60500000D03*
X16900000Y61300000D03*
X16900000Y62100000D03*
X16900000Y62900000D03*
X16900000Y63700000D03*
X16900000Y64500000D03*
X16900000Y65300000D03*
X16900000Y66100000D03*
D29*
X14800000Y68200000D03*
X14000000Y68200000D03*
X13200000Y68200000D03*
X12400000Y68200000D03*
X11600000Y68200000D03*
X10800000Y68200000D03*
X10000000Y68200000D03*
X9200000Y68200000D03*
X8400000Y68200000D03*
X7600000Y68200000D03*
X6800000Y68200000D03*
D13*
X4550000Y24200000D03*
X2850000Y24200000D03*
X14550000Y71500000D03*
X16250000Y71500000D03*
X14550000Y73200000D03*
X16250000Y73200000D03*
X6350000Y73200000D03*
X4650000Y73200000D03*
X6350000Y71500000D03*
X4650000Y71500000D03*
D30*
X9960000Y17090000D03*
D31*
X12500000Y17090000D03*
X15040000Y17090000D03*
X15040000Y24710000D03*
X12500000Y24710000D03*
X9960000Y24710000D03*
D32*
X2330000Y4300000D03*
X4870000Y4300000D03*
X7410000Y4300000D03*
X9950000Y4300000D03*
X12490000Y4300000D03*
X15030000Y4300000D03*
X17570000Y4300000D03*
X20110000Y4300000D03*
X22650000Y4300000D03*
X25190000Y4300000D03*
X27730000Y4300000D03*
X30270000Y4300000D03*
X32810000Y4300000D03*
X35350000Y4300000D03*
X37890000Y4300000D03*
X40430000Y4300000D03*
X42970000Y4300000D03*
X45510000Y4300000D03*
X48050000Y4300000D03*
X50590000Y4300000D03*
X53130000Y4300000D03*
X55670000Y4300000D03*
D33*
X12400000Y49400000D03*
D34*
X2800000Y21000000D03*
X3800000Y21000000D03*
X28300000Y17000000D03*
X24600000Y17000000D03*
X20800000Y17000000D03*
X21600000Y17000000D03*
X27500000Y17000000D03*
X25400000Y17000000D03*
X43250000Y58850000D03*
X11300000Y43600000D03*
X14400000Y43600000D03*
X42750000Y54500000D03*
X10800000Y72000000D03*
X10800000Y70200000D03*
X19000000Y38000000D03*
X15300000Y30600000D03*
X12050000Y30350000D03*
X13050000Y40800000D03*
X16100000Y40800000D03*
X3400000Y41000000D03*
X13800000Y49400000D03*
X22200000Y45500000D03*
X18900000Y45900000D03*
X7200000Y37500000D03*
X52800000Y69700000D03*
X49200000Y69700000D03*
X53600000Y69700000D03*
X40100000Y32800000D03*
X40100000Y37200000D03*
X9300000Y46200000D03*
X6700000Y40800000D03*
X24400000Y55452500D03*
X24400000Y56800000D03*
X29000000Y73700000D03*
X7400000Y34100000D03*
D33*
X27700000Y57992500D03*
X27700000Y56722500D03*
X30300000Y50372500D03*
X30300000Y52912500D03*
X27700000Y50372500D03*
X27700000Y52277500D03*
X30300000Y57357500D03*
D34*
X30300000Y55452500D03*
X11800000Y57900000D03*
X10600000Y57900000D03*
X21850000Y50300000D03*
X21850000Y52300000D03*
X21850000Y48300000D03*
X48400000Y69700000D03*
X36150000Y48300000D03*
X36150000Y52300000D03*
X36150000Y50300000D03*
X23300000Y36050000D03*
X23300000Y44750000D03*
X19300000Y61850000D03*
X16050000Y29500000D03*
X20100000Y26650000D03*
X20100000Y74650000D03*
X2300000Y66950000D03*
X8050000Y29500000D03*
X14250000Y50500000D03*
X18750000Y50500000D03*
X56200000Y10500000D03*
X1800000Y17400000D03*
X1800000Y14400000D03*
X1800000Y10500000D03*
X2300000Y34750000D03*
X2300000Y42250000D03*
D33*
X3800000Y33000000D03*
D35*
X17600000Y79600000D03*
X12100000Y71100000D03*
X9600000Y11600000D03*
X17600000Y20300000D03*
D33*
X17300000Y30500000D03*
D35*
X47890000Y18300000D03*
X50430000Y18300000D03*
X52970000Y18300000D03*
X44080000Y25800000D03*
X50430000Y25800000D03*
X45350000Y26700000D03*
X49160000Y26700000D03*
D33*
X26600000Y10700000D03*
D35*
X35200000Y22000000D03*
D33*
X25190000Y10700000D03*
D35*
X31400000Y20800000D03*
D33*
X31380000Y10900000D03*
X22200000Y34200000D03*
X12400000Y54200000D03*
X10800000Y63600000D03*
X27100000Y68600000D03*
X9300000Y63300000D03*
X28500000Y68000000D03*
X9300000Y64300000D03*
X29400000Y68000000D03*
X11000000Y66200000D03*
X33800000Y70200000D03*
X10000000Y66200000D03*
X34400000Y70900000D03*
X9000000Y66200000D03*
X41400000Y71400000D03*
X6700000Y62800000D03*
X40500000Y71400000D03*
X6700000Y63800000D03*
X39600000Y71400000D03*
X14800000Y63200000D03*
X39600000Y69900000D03*
X8300000Y37900000D03*
X9000000Y39100000D03*
X14300000Y62500000D03*
X40500000Y69900000D03*
X41600000Y69900000D03*
X9700000Y38500000D03*
X14800000Y61800000D03*
X42600000Y70100000D03*
X10400000Y39100000D03*
X14300000Y61100000D03*
D35*
X54000000Y73900000D03*
D33*
X11100000Y38500000D03*
D35*
X43400000Y70850000D03*
D33*
X14800000Y60400000D03*
X11800000Y39100000D03*
D35*
X43400000Y72100000D03*
D33*
X14300000Y59700000D03*
X12500000Y38500000D03*
X14800000Y59000000D03*
X47900000Y72700000D03*
X13200000Y39100000D03*
X14300000Y58300000D03*
X48600000Y73400000D03*
D35*
X41000000Y64900000D03*
D33*
X16800000Y45900000D03*
X9100000Y54200000D03*
X47900000Y74100000D03*
X39000000Y60100000D03*
X15800000Y45900000D03*
X10100000Y54200000D03*
X23700000Y65000000D03*
X13600000Y66200000D03*
X36400000Y72600000D03*
X12700000Y66200000D03*
X36000000Y71800000D03*
X38800000Y64800000D03*
X10200000Y52800000D03*
X14000000Y53700000D03*
X22300000Y65000000D03*
D35*
X13200000Y34000000D03*
X33400000Y52200000D03*
X39000000Y25100000D03*
X33500000Y56722500D03*
X39000000Y23800000D03*
X45500000Y59500000D03*
X42800000Y64900000D03*
D33*
X37800000Y64500000D03*
X14800000Y45900000D03*
D35*
X6700000Y66100000D03*
D33*
X6700000Y38500000D03*
X13000000Y63200000D03*
X6700000Y42000000D03*
X10100000Y62900000D03*
X4000000Y49600000D03*
D34*
X27300000Y74900000D03*
X49160000Y60400000D03*
D35*
X5300000Y29600000D03*
X17400000Y37400000D03*
X17400000Y36100000D03*
D33*
X18700000Y40500000D03*
D35*
X17400000Y43600000D03*
X18500000Y19500000D03*
D33*
X17300000Y33900000D03*
D35*
X11800000Y11200000D03*
D33*
X6700000Y36400000D03*
D35*
X2500000Y22400000D03*
X2500000Y31400000D03*
X5300000Y31000000D03*
X19900000Y20300000D03*
D33*
X18300000Y33900000D03*
D35*
X11230000Y22100000D03*
X14300000Y34000000D03*
D33*
X12600000Y45600000D03*
D35*
X13000000Y11200000D03*
D33*
X11800000Y46200000D03*
D35*
X46300000Y64900000D03*
X20000000Y79700000D03*
X49800000Y68400000D03*
D33*
X41300000Y59700000D03*
X17800000Y45900000D03*
D36*
X5000000Y39500000D02*
X2900000Y39500000D01*
X2900000Y39500000D02*
X2700000Y39300000D01*
X12400000Y49400000D02*
X12800000Y49000000D01*
X12800000Y49000000D02*
X12800000Y47800000D01*
D37*
X11300000Y43600000D02*
X10300000Y43600000D01*
X10300000Y43600000D02*
X9600000Y42900000D01*
X9600000Y42900000D02*
X9600000Y40800000D01*
D38*
X2330000Y9970000D02*
X2330000Y4300000D01*
X3800000Y21000000D02*
X8600000Y21000000D01*
X8600000Y21000000D02*
X9960000Y19640000D01*
X9960000Y19640000D02*
X9960000Y17090000D01*
X3800000Y21000000D02*
X2800000Y21000000D01*
X28300000Y17000000D02*
X27500000Y17000000D01*
X25400000Y17000000D02*
X24600000Y17000000D01*
X21600000Y17000000D02*
X20800000Y17000000D01*
X21600000Y17000000D02*
X24600000Y17000000D01*
X25400000Y17000000D02*
X27500000Y17000000D01*
D37*
X42750000Y55700000D02*
X42750000Y58350000D01*
X42750000Y58350000D02*
X43250000Y58850000D01*
X13050000Y40800000D02*
X9600000Y40800000D01*
X9600000Y40800000D02*
X6700000Y40800000D01*
X14400000Y43600000D02*
X11300000Y43600000D01*
X42750000Y55700000D02*
X42750000Y54500000D01*
D39*
X42300000Y52600000D02*
X42300000Y54050000D01*
X42300000Y54050000D02*
X42750000Y54500000D01*
D40*
X10600000Y57900000D02*
X11800000Y57900000D01*
D37*
X10800000Y72000000D02*
X10800000Y70200000D01*
D41*
X10800000Y70200000D02*
X10800000Y68200000D01*
D42*
X19000000Y38000000D02*
X20600000Y38000000D01*
D40*
X15300000Y30600000D02*
X15300000Y29900000D01*
X15300000Y29900000D02*
X15700000Y29500000D01*
X15700000Y29500000D02*
X16050000Y29500000D01*
D42*
X15300000Y32300000D02*
X15300000Y30600000D01*
X12050000Y30350000D02*
X12800000Y31100000D01*
X12800000Y31100000D02*
X12800000Y32200000D01*
X6800000Y33500000D02*
X6800000Y32200000D01*
D37*
X16100000Y40800000D02*
X13050000Y40800000D01*
X3400000Y41000000D02*
X2800000Y41000000D01*
X2800000Y41000000D02*
X2300000Y41500000D01*
X2300000Y41500000D02*
X2300000Y42250000D01*
D42*
X5000000Y41000000D02*
X3400000Y41000000D01*
D40*
X13800000Y49400000D02*
X13800000Y50050000D01*
X13800000Y50050000D02*
X14250000Y50500000D01*
D42*
X13800000Y47800000D02*
X13800000Y49400000D01*
D36*
X20600000Y45500000D02*
X22200000Y45500000D01*
X19300000Y45500000D02*
X20600000Y45500000D01*
X19300000Y45500000D02*
X18900000Y45900000D01*
D37*
X22200000Y45500000D02*
X22800000Y45500000D01*
X22800000Y45500000D02*
X23300000Y45000000D01*
X23300000Y45000000D02*
X23300000Y44750000D01*
D39*
X44800000Y52200000D02*
X45150000Y51850000D01*
X45150000Y51850000D02*
X45150000Y49500000D01*
X43650000Y52200000D02*
X44800000Y52200000D01*
D38*
X45150000Y49500000D02*
X44190000Y48540000D01*
X44190000Y48540000D02*
X44190000Y46600000D01*
D39*
X42300000Y52600000D02*
X42700000Y52200000D01*
X42700000Y52200000D02*
X43650000Y52200000D01*
D38*
X51810000Y46600000D02*
X53600000Y48390000D01*
X53600000Y48390000D02*
X53600000Y50250000D01*
D37*
X7200000Y37500000D02*
X7800000Y36900000D01*
X7800000Y36900000D02*
X7800000Y35800000D01*
X7800000Y35800000D02*
X7400000Y35400000D01*
X7400000Y35400000D02*
X7400000Y34100000D01*
X52800000Y69700000D02*
X53600000Y69700000D01*
X48400000Y69700000D02*
X49200000Y69700000D01*
X49200000Y69700000D02*
X52800000Y69700000D01*
D38*
X40100000Y32800000D02*
X40100000Y37200000D01*
D42*
X9300000Y47800000D02*
X9300000Y46200000D01*
D41*
X26250000Y58627500D02*
X27472500Y58627500D01*
X27472500Y58627500D02*
X27700000Y58400000D01*
X27700000Y58400000D02*
X27700000Y57992500D01*
D38*
X19300000Y61850000D02*
X19300000Y59500000D01*
X19300000Y59500000D02*
X20500000Y58300000D01*
X20500000Y58300000D02*
X23700000Y58300000D01*
X23700000Y58300000D02*
X24400000Y57600000D01*
X24400000Y57600000D02*
X24400000Y56800000D01*
D40*
X27700000Y57992500D02*
X27700000Y57357500D01*
D41*
X26250000Y57992500D02*
X27700000Y57992500D01*
X26250000Y57357500D02*
X27700000Y57357500D01*
D40*
X30300000Y51007500D02*
X30300000Y50372500D01*
D41*
X31750000Y51007500D02*
X30300000Y51007500D01*
D40*
X30300000Y51007500D02*
X30300000Y52912500D01*
D41*
X31750000Y50372500D02*
X30300000Y50372500D01*
D38*
X56200000Y10500000D02*
X56200000Y11800000D01*
X55510000Y14380000D02*
X55510000Y12490000D01*
X55510000Y12490000D02*
X56200000Y11800000D01*
D42*
X6700000Y40800000D02*
X6300000Y40800000D01*
X6300000Y40800000D02*
X6100000Y41000000D01*
X6100000Y41000000D02*
X5000000Y41000000D01*
D40*
X30300000Y55452500D02*
X30300000Y52912500D01*
D41*
X31750000Y52912500D02*
X30300000Y52912500D01*
D40*
X30300000Y57357500D02*
X30300000Y55452500D01*
D41*
X31750000Y57357500D02*
X30300000Y57357500D01*
D40*
X27700000Y57357500D02*
X27700000Y56722500D01*
X27700000Y56722500D02*
X27700000Y52277500D01*
D41*
X26250000Y56722500D02*
X27700000Y56722500D01*
D40*
X27700000Y50372500D02*
X27700000Y52277500D01*
D41*
X26250000Y52277500D02*
X27700000Y52277500D01*
X26250000Y50372500D02*
X27700000Y50372500D01*
X31750000Y55452500D02*
X30300000Y55452500D01*
D38*
X24400000Y56800000D02*
X24400000Y55452500D01*
D41*
X26250000Y55452500D02*
X24400000Y55452500D01*
D37*
X29000000Y72650000D02*
X29000000Y73700000D01*
D42*
X7400000Y34100000D02*
X6800000Y33500000D01*
D41*
X11800000Y57900000D02*
X11600000Y57700000D01*
X11600000Y57700000D02*
X11600000Y56000000D01*
X10600000Y57900000D02*
X10800000Y57700000D01*
X10800000Y57700000D02*
X10800000Y56000000D01*
D37*
X21850000Y51300000D02*
X21850000Y50300000D01*
X21850000Y49300000D02*
X21850000Y50300000D01*
X21850000Y51300000D02*
X21850000Y52300000D01*
X21850000Y49300000D02*
X21850000Y48300000D01*
X19300000Y62850000D02*
X19300000Y61850000D01*
D43*
X45600000Y69725000D02*
X48375000Y69725000D01*
D36*
X48375000Y69725000D02*
X48400000Y69700000D01*
D38*
X36150000Y49300000D02*
X36150000Y48300000D01*
X36150000Y51300000D02*
X36150000Y52300000D01*
X36150000Y51300000D02*
X36150000Y50300000D01*
X36150000Y49300000D02*
X36150000Y50300000D01*
D37*
X23300000Y35050000D02*
X23300000Y36050000D01*
X23300000Y43750000D02*
X23300000Y44750000D01*
X15050000Y29500000D02*
X16050000Y29500000D01*
X20100000Y27650000D02*
X20100000Y26650000D01*
X20100000Y75650000D02*
X20100000Y74650000D01*
X2300000Y66950000D02*
X2300000Y65950000D01*
X9050000Y29500000D02*
X8050000Y29500000D01*
X13250000Y50500000D02*
X14250000Y50500000D01*
X17750000Y50500000D02*
X18750000Y50500000D01*
D38*
X56200000Y10500000D02*
X55670000Y9970000D01*
X55670000Y9970000D02*
X55670000Y4300000D01*
X1800000Y15900000D02*
X1800000Y17400000D01*
X1800000Y14400000D02*
X1800000Y15900000D01*
X1800000Y12900000D02*
X1800000Y14400000D01*
X1800000Y10500000D02*
X1800000Y12900000D01*
X2330000Y9970000D02*
X1800000Y10500000D01*
D41*
X31750000Y55452500D02*
X34635000Y55452500D01*
X34635000Y55452500D02*
X34900000Y55717500D01*
X36500000Y56400000D02*
X35582500Y56400000D01*
X35582500Y56400000D02*
X34900000Y55717500D01*
D37*
X2300000Y35750000D02*
X2300000Y34750000D01*
X2300000Y43250000D02*
X2300000Y42250000D01*
D38*
X4800000Y12900000D02*
X4870000Y12830000D01*
X4870000Y12830000D02*
X4870000Y4300000D01*
X7410000Y12090000D02*
X7410000Y4300000D01*
X900000Y26300000D02*
X6600000Y26300000D01*
X6600000Y26300000D02*
X7600000Y27300000D01*
X7600000Y27300000D02*
X10000000Y27300000D01*
X10000000Y27300000D02*
X10800000Y28100000D01*
X1100000Y74100000D02*
X1100000Y67500000D01*
X4650000Y74800000D02*
X16250000Y74800000D01*
D41*
X4650000Y73200000D02*
X4650000Y74800000D01*
D38*
X1800000Y74800000D02*
X4650000Y74800000D01*
D41*
X16250000Y73200000D02*
X16250000Y74800000D01*
X16250000Y73200000D02*
X16250000Y71500000D01*
X4650000Y71500000D02*
X4650000Y73200000D01*
D44*
X4700000Y64500000D02*
X2550000Y64500000D01*
X2550000Y64500000D02*
X2300000Y64250000D01*
D38*
X20100000Y30200000D02*
X21800000Y31900000D01*
X21800000Y31900000D02*
X22800000Y31900000D01*
X22800000Y31900000D02*
X23300000Y32400000D01*
X23300000Y32400000D02*
X23300000Y33350000D01*
X20100000Y30200000D02*
X20100000Y29350000D01*
X17100000Y28100000D02*
X19200000Y30200000D01*
X19200000Y30200000D02*
X20100000Y30200000D01*
X17100000Y28100000D02*
X13300000Y28100000D01*
D36*
X20600000Y34000000D02*
X21400000Y34000000D01*
X21400000Y34000000D02*
X22050000Y33350000D01*
X22050000Y33350000D02*
X23300000Y33350000D01*
D42*
X21900000Y41500000D02*
X20600000Y41500000D01*
D38*
X900000Y67300000D02*
X1100000Y67500000D01*
X1800000Y74800000D02*
X1100000Y74100000D01*
D43*
X900000Y64200000D02*
X2250000Y64200000D01*
X2250000Y64200000D02*
X2300000Y64250000D01*
D38*
X900000Y64200000D02*
X900000Y67300000D01*
X1200000Y23300000D02*
X900000Y23600000D01*
X900000Y23600000D02*
X900000Y24200000D01*
X4800000Y15900000D02*
X4800000Y18500000D01*
X4800000Y18500000D02*
X4100000Y19200000D01*
X4100000Y19200000D02*
X2000000Y19200000D01*
X2000000Y19200000D02*
X1200000Y20000000D01*
X1200000Y20000000D02*
X1200000Y23300000D01*
X51700000Y50250000D02*
X50350000Y50250000D01*
X50350000Y50250000D02*
X49600000Y49500000D01*
X49600000Y49500000D02*
X48500000Y49500000D01*
X46850000Y49500000D02*
X48500000Y49500000D01*
X48500000Y49500000D02*
X48500000Y44600000D01*
X48500000Y44600000D02*
X47100000Y43200000D01*
X47100000Y43200000D02*
X35300000Y43200000D01*
X35300000Y43200000D02*
X33650000Y44850000D01*
X33650000Y44850000D02*
X33650000Y48500000D01*
D39*
X46850000Y50950000D02*
X46850000Y49500000D01*
X43650000Y52700000D02*
X45100000Y52700000D01*
X45100000Y52700000D02*
X46850000Y50950000D01*
D38*
X16250000Y74800000D02*
X18700000Y74800000D01*
X18700000Y74800000D02*
X18700000Y76900000D01*
X18700000Y76900000D02*
X19150000Y77350000D01*
X19150000Y77350000D02*
X20100000Y77350000D01*
D36*
X28840000Y24450000D02*
X27350000Y24450000D01*
X27350000Y24450000D02*
X26300000Y25500000D01*
X26300000Y25500000D02*
X26300000Y32080000D01*
X26300000Y32080000D02*
X25380000Y33000000D01*
D38*
X18700000Y74800000D02*
X18700000Y68800000D01*
X28900000Y49100000D02*
X31400000Y49100000D01*
X31400000Y49100000D02*
X32000000Y48500000D01*
X28900000Y49100000D02*
X26600000Y49100000D01*
X26600000Y49100000D02*
X24600000Y47100000D01*
X27800000Y60100000D02*
X21600000Y60100000D01*
X28900000Y49100000D02*
X28900000Y59000000D01*
X28900000Y59000000D02*
X27800000Y60100000D01*
X21600000Y60100000D02*
X20700000Y61000000D01*
X20700000Y61000000D02*
X20700000Y62380000D01*
D41*
X31750000Y53547500D02*
X33452500Y53547500D01*
X33452500Y53547500D02*
X34450000Y52550000D01*
X34450000Y52550000D02*
X34450000Y51300000D01*
D38*
X900000Y24200000D02*
X900000Y26300000D01*
X24600000Y47100000D02*
X23550000Y47100000D01*
D37*
X24600000Y47100000D02*
X24600000Y42500000D01*
X24600000Y42500000D02*
X24150000Y42050000D01*
X24150000Y42050000D02*
X23300000Y42050000D01*
D38*
X32000000Y48500000D02*
X33650000Y48500000D01*
X33650000Y48500000D02*
X34450000Y49300000D01*
X20700000Y62380000D02*
X22490000Y62380000D01*
X20700000Y64600000D02*
X20700000Y62380000D01*
X23550000Y49300000D02*
X23550000Y47100000D01*
D37*
X21000000Y47100000D02*
X23550000Y47100000D01*
X20200000Y47900000D02*
X21000000Y47100000D01*
X20200000Y51100000D02*
X20200000Y47900000D01*
X19400000Y51900000D02*
X20200000Y51100000D01*
X16050000Y51900000D02*
X19400000Y51900000D01*
X11550000Y50500000D02*
X11550000Y51450000D01*
X11550000Y51450000D02*
X12000000Y51900000D01*
X12000000Y51900000D02*
X16050000Y51900000D01*
X16050000Y51900000D02*
X16050000Y50500000D01*
D38*
X20700000Y66800000D02*
X20700000Y64600000D01*
D43*
X20700000Y64600000D02*
X19350000Y64600000D01*
D38*
X19350000Y64600000D02*
X19300000Y64550000D01*
X18700000Y68800000D02*
X20700000Y66800000D01*
D41*
X24547500Y53547500D02*
X23550000Y52550000D01*
X23550000Y52550000D02*
X23550000Y51300000D01*
X26250000Y53547500D02*
X24547500Y53547500D01*
D37*
X23550000Y49300000D02*
X23550000Y51300000D01*
D44*
X16900000Y64500000D02*
X19250000Y64500000D01*
D45*
X19250000Y64500000D02*
X19300000Y64550000D01*
D37*
X34450000Y49300000D02*
X34450000Y51300000D01*
D42*
X21900000Y41500000D02*
X22450000Y42050000D01*
X22450000Y42050000D02*
X23300000Y42050000D01*
D36*
X24500000Y33000000D02*
X24150000Y33350000D01*
X24150000Y33350000D02*
X23300000Y33350000D01*
X25380000Y33000000D02*
X24500000Y33000000D01*
D41*
X900000Y24200000D02*
X2850000Y24200000D01*
D37*
X21320000Y29620000D02*
X21050000Y29350000D01*
X21050000Y29350000D02*
X20100000Y29350000D01*
X22490000Y29620000D02*
X21320000Y29620000D01*
D38*
X13300000Y28100000D02*
X13300000Y29450000D01*
X13300000Y29450000D02*
X13350000Y29500000D01*
X10800000Y28100000D02*
X13300000Y28100000D01*
X900000Y26300000D02*
X900000Y37500000D01*
X10800000Y29450000D02*
X10800000Y28100000D01*
X10750000Y29500000D02*
X10800000Y29450000D01*
D41*
X33920000Y24450000D02*
X36460000Y24450000D01*
X31380000Y24450000D02*
X33920000Y24450000D01*
X28840000Y24450000D02*
X31380000Y24450000D01*
D37*
X21320000Y77620000D02*
X21050000Y77350000D01*
X21050000Y77350000D02*
X20100000Y77350000D01*
X22490000Y77620000D02*
X21320000Y77620000D01*
D38*
X900000Y45000000D02*
X900000Y64200000D01*
X4800000Y12900000D02*
X6600000Y12900000D01*
X6600000Y12900000D02*
X7410000Y12090000D01*
X4800000Y12900000D02*
X4800000Y15900000D01*
D42*
X15800000Y47800000D02*
X15800000Y50250000D01*
X15800000Y50250000D02*
X16050000Y50500000D01*
X11300000Y47800000D02*
X11300000Y50250000D01*
X11300000Y50250000D02*
X11550000Y50500000D01*
X13300000Y32200000D02*
X13300000Y29550000D01*
X13300000Y29550000D02*
X13350000Y29500000D01*
X10800000Y32200000D02*
X10800000Y29550000D01*
X10800000Y29550000D02*
X10750000Y29500000D01*
D38*
X900000Y42600000D02*
X900000Y37500000D01*
X2300000Y37450000D02*
X2250000Y37500000D01*
X2250000Y37500000D02*
X900000Y37500000D01*
D42*
X5000000Y37500000D02*
X2350000Y37500000D01*
X2350000Y37500000D02*
X2300000Y37450000D01*
X5000000Y45000000D02*
X2350000Y45000000D01*
X2350000Y45000000D02*
X2300000Y44950000D01*
D38*
X900000Y45000000D02*
X900000Y42600000D01*
X2050000Y45000000D02*
X900000Y45000000D01*
X2100000Y44950000D02*
X2050000Y45000000D01*
D36*
X3800000Y33000000D02*
X3800000Y30300000D01*
X3800000Y30300000D02*
X2850000Y29350000D01*
X2850000Y29350000D02*
X2850000Y28400000D01*
D46*
X3800000Y33000000D02*
X3800000Y33600000D01*
X3800000Y33600000D02*
X3650000Y33750000D01*
X3650000Y33750000D02*
X3650000Y34850000D01*
X3650000Y34850000D02*
X3800000Y35000000D01*
X3800000Y35000000D02*
X5000000Y35000000D01*
D36*
X11600000Y69700000D02*
X11600000Y68200000D01*
X17600000Y79600000D02*
X18500000Y80500000D01*
X55100000Y80500000D02*
X56900000Y78700000D01*
X18500000Y80500000D02*
X55100000Y80500000D01*
X56900000Y78700000D02*
X56900000Y75800000D01*
X55400000Y74300000D02*
X55400000Y69300000D01*
X56900000Y75800000D02*
X55400000Y74300000D01*
X54240000Y68140000D02*
X54240000Y61240000D01*
X55400000Y69300000D02*
X54240000Y68140000D01*
X54240000Y61240000D02*
X52200000Y59200000D01*
X52200000Y59200000D02*
X46800000Y59200000D01*
X46800000Y59200000D02*
X46000000Y58400000D01*
X46000000Y58400000D02*
X46000000Y53400000D01*
X46000000Y53400000D02*
X46700000Y52700000D01*
X46700000Y52700000D02*
X48350000Y52700000D01*
X11600000Y69700000D02*
X12100000Y70200000D01*
X12100000Y70200000D02*
X12100000Y71100000D01*
X9600000Y11600000D02*
X9600000Y12400000D01*
X9600000Y12400000D02*
X9950000Y12750000D01*
X9950000Y12750000D02*
X9950000Y12900000D01*
D46*
X17300000Y30500000D02*
X16600000Y30500000D01*
X16600000Y30500000D02*
X16300000Y30800000D01*
X16300000Y30800000D02*
X16300000Y32200000D01*
X17600000Y20300000D02*
X17600000Y14000000D01*
X17600000Y14000000D02*
X16500000Y12900000D01*
X16500000Y12900000D02*
X11650000Y12900000D01*
X21900000Y38500000D02*
X20600000Y38500000D01*
X21900000Y38500000D02*
X22300000Y38900000D01*
X22300000Y38900000D02*
X25100000Y38900000D01*
X25100000Y38900000D02*
X26100000Y37900000D01*
X26100000Y37900000D02*
X36400000Y37900000D01*
X36400000Y37900000D02*
X38500000Y40000000D01*
X38500000Y40000000D02*
X41700000Y40000000D01*
X41700000Y40000000D02*
X43400000Y38300000D01*
X43400000Y38300000D02*
X43400000Y34900000D01*
X43400000Y34900000D02*
X46300000Y32000000D01*
X46300000Y32000000D02*
X51100000Y32000000D01*
X51100000Y32000000D02*
X51700000Y31400000D01*
X51700000Y31400000D02*
X51700000Y22110000D01*
X51700000Y22110000D02*
X47890000Y18300000D01*
X47890000Y14380000D02*
X47890000Y16090000D01*
X53130000Y11430000D02*
X53130000Y4300000D01*
X47890000Y16090000D02*
X48500000Y16700000D01*
X53000000Y16700000D02*
X54240000Y15460000D01*
X54240000Y12540000D02*
X53130000Y11430000D01*
X48500000Y16700000D02*
X53000000Y16700000D01*
X54240000Y15460000D02*
X54240000Y12540000D01*
X21800000Y40000000D02*
X20600000Y40000000D01*
X21800000Y40000000D02*
X22100000Y39700000D01*
X22100000Y39700000D02*
X25500000Y39700000D01*
X25500000Y39700000D02*
X26500000Y38700000D01*
X26500000Y38700000D02*
X36000000Y38700000D01*
X36000000Y38700000D02*
X38100000Y40800000D01*
X38100000Y40800000D02*
X42100000Y40800000D01*
X42100000Y40800000D02*
X44200000Y38700000D01*
X44200000Y38700000D02*
X44200000Y35300000D01*
X44200000Y35300000D02*
X46700000Y32800000D01*
X46700000Y32800000D02*
X52700000Y32800000D01*
X52700000Y32800000D02*
X54240000Y31260000D01*
X54240000Y31260000D02*
X54240000Y22110000D01*
X54240000Y22110000D02*
X50430000Y18300000D01*
X50590000Y12610000D02*
X50430000Y12770000D01*
X50430000Y12770000D02*
X50430000Y14380000D01*
X50590000Y4300000D02*
X50590000Y12610000D01*
X22000000Y41000000D02*
X20600000Y41000000D01*
X22000000Y41000000D02*
X22500000Y40500000D01*
X22500000Y40500000D02*
X25900000Y40500000D01*
X25900000Y40500000D02*
X26900000Y39500000D01*
X26900000Y39500000D02*
X35600000Y39500000D01*
X35600000Y39500000D02*
X37700000Y41600000D01*
X37700000Y41600000D02*
X42500000Y41600000D01*
X42500000Y41600000D02*
X45000000Y39100000D01*
X45000000Y39100000D02*
X45000000Y35700000D01*
X45000000Y35700000D02*
X47100000Y33600000D01*
X47100000Y33600000D02*
X54100000Y33600000D01*
X54100000Y33600000D02*
X56780000Y30920000D01*
X56780000Y30920000D02*
X56780000Y22110000D01*
X56780000Y22110000D02*
X52970000Y18300000D01*
X52970000Y14380000D02*
X52970000Y15830000D01*
X52970000Y15830000D02*
X52500000Y16300000D01*
X52500000Y16300000D02*
X49760000Y16300000D01*
X49760000Y16300000D02*
X49160000Y15700000D01*
X49160000Y15700000D02*
X49160000Y11700000D01*
X49160000Y11700000D02*
X48050000Y10590000D01*
X48050000Y10590000D02*
X48050000Y4300000D01*
X21900000Y40500000D02*
X20600000Y40500000D01*
X55510000Y30990000D02*
X55510000Y29620000D01*
X21900000Y40500000D02*
X22300000Y40100000D01*
X22300000Y40100000D02*
X25700000Y40100000D01*
X25700000Y40100000D02*
X26700000Y39100000D01*
X26700000Y39100000D02*
X35800000Y39100000D01*
X35800000Y39100000D02*
X37900000Y41200000D01*
X37900000Y41200000D02*
X42300000Y41200000D01*
X42300000Y41200000D02*
X44600000Y38900000D01*
X44600000Y38900000D02*
X44600000Y35500000D01*
X44600000Y35500000D02*
X46900000Y33200000D01*
X46900000Y33200000D02*
X53300000Y33200000D01*
X53300000Y33200000D02*
X55510000Y30990000D01*
X45510000Y4300000D02*
X45510000Y11390000D01*
X45510000Y11390000D02*
X46620000Y12500000D01*
X46620000Y12500000D02*
X46620000Y16000000D01*
X46620000Y16000000D02*
X47720000Y17100000D01*
X47720000Y17100000D02*
X50500000Y17100000D01*
X50500000Y17100000D02*
X55510000Y22110000D01*
X55510000Y22110000D02*
X55510000Y29620000D01*
D36*
X55500000Y29630000D02*
X55510000Y29620000D01*
D46*
X21800000Y39000000D02*
X20600000Y39000000D01*
X21800000Y39000000D02*
X22100000Y39300000D01*
X22100000Y39300000D02*
X25300000Y39300000D01*
X53000000Y31400000D02*
X53000000Y29650000D01*
X25300000Y39300000D02*
X26300000Y38300000D01*
X26300000Y38300000D02*
X36200000Y38300000D01*
X36200000Y38300000D02*
X38300000Y40400000D01*
X38300000Y40400000D02*
X41900000Y40400000D01*
X41900000Y40400000D02*
X43800000Y38500000D01*
X43800000Y38500000D02*
X43800000Y35100000D01*
X43800000Y35100000D02*
X46500000Y32400000D01*
X46500000Y32400000D02*
X52000000Y32400000D01*
X52000000Y32400000D02*
X53000000Y31400000D01*
X42970000Y4300000D02*
X42970000Y11190000D01*
X42970000Y11190000D02*
X44080000Y12300000D01*
X44080000Y12300000D02*
X44080000Y15900000D01*
X44080000Y15900000D02*
X45680000Y17500000D01*
X45680000Y17500000D02*
X48400000Y17500000D01*
X48400000Y17500000D02*
X52970000Y22070000D01*
X52970000Y22070000D02*
X52970000Y29620000D01*
D36*
X52970000Y29620000D02*
X53000000Y29650000D01*
D46*
X44080000Y25800000D02*
X44080000Y32420000D01*
X44080000Y32420000D02*
X42200000Y34300000D01*
X42200000Y34300000D02*
X42200000Y37700000D01*
X42200000Y37700000D02*
X41100000Y38800000D01*
X41100000Y38800000D02*
X39100000Y38800000D01*
X39100000Y38800000D02*
X37000000Y36700000D01*
X37000000Y36700000D02*
X25500000Y36700000D01*
X25500000Y36700000D02*
X24500000Y37700000D01*
X24500000Y37700000D02*
X23100000Y37700000D01*
X23100000Y37700000D02*
X21900000Y36500000D01*
X21900000Y36500000D02*
X20600000Y36500000D01*
X50430000Y25800000D02*
X50430000Y29620000D01*
X50430000Y21530000D02*
X50430000Y25800000D01*
X50430000Y21530000D02*
X48300000Y19400000D01*
X48300000Y19400000D02*
X45000000Y19400000D01*
X45000000Y19400000D02*
X41540000Y15940000D01*
X40430000Y10890000D02*
X40430000Y4300000D01*
X41540000Y15940000D02*
X41540000Y12000000D01*
X41540000Y12000000D02*
X40430000Y10890000D01*
X21800000Y37000000D02*
X20600000Y37000000D01*
X21800000Y37000000D02*
X22900000Y38100000D01*
X22900000Y38100000D02*
X24700000Y38100000D01*
X24700000Y38100000D02*
X25700000Y37100000D01*
X25700000Y37100000D02*
X36800000Y37100000D01*
X36800000Y37100000D02*
X38900000Y39200000D01*
X38900000Y39200000D02*
X41300000Y39200000D01*
X41300000Y39200000D02*
X42600000Y37900000D01*
X42600000Y37900000D02*
X42600000Y34500000D01*
X42600000Y34500000D02*
X45900000Y31200000D01*
X45900000Y31200000D02*
X46900000Y31200000D01*
X46900000Y31200000D02*
X47890000Y30210000D01*
X47890000Y30210000D02*
X47890000Y29620000D01*
X47890000Y29620000D02*
X47890000Y26790000D01*
X47890000Y26790000D02*
X39000000Y17900000D01*
X39000000Y17900000D02*
X39000000Y11700000D01*
X39000000Y11700000D02*
X37890000Y10590000D01*
X37890000Y10590000D02*
X37890000Y4300000D01*
X21700000Y37500000D02*
X20600000Y37500000D01*
X49160000Y26700000D02*
X49160000Y31000000D01*
X49160000Y31000000D02*
X48560000Y31600000D01*
X48560000Y31600000D02*
X46100000Y31600000D01*
X46100000Y31600000D02*
X43000000Y34700000D01*
X43000000Y34700000D02*
X43000000Y38100000D01*
X43000000Y38100000D02*
X41500000Y39600000D01*
X41500000Y39600000D02*
X38700000Y39600000D01*
X38700000Y39600000D02*
X36600000Y37500000D01*
X36600000Y37500000D02*
X25900000Y37500000D01*
X25900000Y37500000D02*
X24900000Y38500000D01*
X24900000Y38500000D02*
X22700000Y38500000D01*
X22700000Y38500000D02*
X21700000Y37500000D01*
X35350000Y4300000D02*
X35350000Y10590000D01*
X35350000Y10590000D02*
X36460000Y11700000D01*
X36460000Y11700000D02*
X36460000Y16060000D01*
X36460000Y16060000D02*
X45350000Y24950000D01*
X45350000Y24950000D02*
X45350000Y26700000D01*
X45350000Y26700000D02*
X45350000Y29620000D01*
X42810000Y29620000D02*
X42810000Y33090000D01*
X42810000Y33090000D02*
X41800000Y34100000D01*
X41800000Y34100000D02*
X41800000Y37500000D01*
X41800000Y37500000D02*
X40900000Y38400000D01*
X40900000Y38400000D02*
X39300000Y38400000D01*
X39300000Y38400000D02*
X37200000Y36300000D01*
X37200000Y36300000D02*
X25300000Y36300000D01*
X25300000Y36300000D02*
X24300000Y37300000D01*
X24300000Y37300000D02*
X23300000Y37300000D01*
X23300000Y37300000D02*
X22300000Y36300000D01*
X22300000Y36300000D02*
X22300000Y35900000D01*
X22300000Y35900000D02*
X21900000Y35500000D01*
X21900000Y35500000D02*
X20600000Y35500000D01*
X26600000Y10700000D02*
X28840000Y12940000D01*
X28840000Y12940000D02*
X28840000Y15640000D01*
X28840000Y15640000D02*
X29700000Y16500000D01*
X29700000Y16500000D02*
X29700000Y20700000D01*
X29700000Y20700000D02*
X30600000Y21600000D01*
X30600000Y21600000D02*
X34300000Y21600000D01*
X34300000Y21600000D02*
X34700000Y21200000D01*
X38400000Y21200000D02*
X40270000Y23070000D01*
X34700000Y21200000D02*
X38400000Y21200000D01*
X40270000Y23070000D02*
X40270000Y29620000D01*
X35200000Y22000000D02*
X30400000Y22000000D01*
X30400000Y22000000D02*
X29300000Y20900000D01*
X29300000Y20900000D02*
X29300000Y16700000D01*
X29300000Y16700000D02*
X28700000Y16100000D01*
X28700000Y16100000D02*
X26800000Y16100000D01*
X26800000Y16100000D02*
X26300000Y15600000D01*
X26300000Y15600000D02*
X26300000Y11810000D01*
X26300000Y11810000D02*
X25190000Y10700000D01*
X31400000Y20800000D02*
X31380000Y20780000D01*
X31380000Y20780000D02*
X31380000Y10900000D01*
X21900000Y34500000D02*
X20600000Y34500000D01*
X22200000Y34200000D02*
X21900000Y34500000D01*
X11100000Y53900000D02*
X10700000Y53500000D01*
X11100000Y53900000D02*
X12100000Y53900000D01*
X12100000Y53900000D02*
X12400000Y54200000D01*
X10700000Y53500000D02*
X9900000Y53500000D01*
X9900000Y53500000D02*
X9400000Y53000000D01*
X9400000Y53000000D02*
X9400000Y49500000D01*
X9400000Y49500000D02*
X8800000Y48900000D01*
X8800000Y48900000D02*
X8800000Y47800000D01*
D36*
X12400000Y54200000D02*
X12400000Y56000000D01*
D46*
X32400000Y69175000D02*
X30725000Y69175000D01*
X30725000Y69175000D02*
X30400000Y69500000D01*
X30400000Y69500000D02*
X26900000Y69500000D01*
X26900000Y69500000D02*
X26400000Y69000000D01*
X26400000Y69000000D02*
X26400000Y63750000D01*
X26400000Y63750000D02*
X25030000Y62380000D01*
X6800000Y56000000D02*
X6800000Y57800000D01*
X6800000Y57800000D02*
X10800000Y61800000D01*
X10800000Y61800000D02*
X10800000Y63200000D01*
X10800000Y63200000D02*
X10800000Y63600000D01*
X32400000Y68625000D02*
X30600000Y68625000D01*
X30600000Y68625000D02*
X30125000Y69100000D01*
X30125000Y69100000D02*
X27600000Y69100000D01*
X27600000Y69100000D02*
X27100000Y68600000D01*
X27100000Y64600000D02*
X27570000Y64130000D01*
X27570000Y64130000D02*
X27570000Y62380000D01*
X27100000Y68600000D02*
X27100000Y64600000D01*
X6500000Y58100000D02*
X4700000Y58100000D01*
X9300000Y63300000D02*
X9300000Y60900000D01*
X9300000Y60900000D02*
X6500000Y58100000D01*
X32400000Y68075000D02*
X30525000Y68075000D01*
X30525000Y68075000D02*
X29900000Y68700000D01*
X29900000Y68700000D02*
X28800000Y68700000D01*
X28800000Y68700000D02*
X28500000Y68400000D01*
X28500000Y68400000D02*
X28500000Y68000000D01*
X28500000Y68000000D02*
X28500000Y63990000D01*
X28500000Y63990000D02*
X30110000Y62380000D01*
X8600000Y60800000D02*
X8600000Y63600000D01*
X8600000Y63600000D02*
X9300000Y64300000D01*
X6700000Y58900000D02*
X8600000Y60800000D01*
X4700000Y58900000D02*
X6700000Y58900000D01*
X30700000Y66900000D02*
X30700000Y64330000D01*
X30700000Y64330000D02*
X32650000Y62380000D01*
X29400000Y68000000D02*
X29400000Y67200000D01*
X29400000Y67200000D02*
X29700000Y66900000D01*
X29700000Y66900000D02*
X30700000Y66900000D01*
X31325000Y67525000D02*
X30700000Y66900000D01*
X32400000Y67525000D02*
X31325000Y67525000D01*
X11000000Y66200000D02*
X9800000Y65000000D01*
X9800000Y65000000D02*
X9000000Y65000000D01*
X9000000Y65000000D02*
X8200000Y64200000D01*
X8200000Y64200000D02*
X8200000Y61200000D01*
X8200000Y61200000D02*
X6700000Y59700000D01*
X6700000Y59700000D02*
X4700000Y59700000D01*
X31700000Y65400000D02*
X32170000Y65400000D01*
X32170000Y65400000D02*
X35190000Y62380000D01*
X33800000Y70200000D02*
X33800000Y67300000D01*
X33800000Y67300000D02*
X33475000Y66975000D01*
X33475000Y66975000D02*
X32400000Y66975000D01*
X31200000Y65900000D02*
X31700000Y65400000D01*
X31200000Y66700000D02*
X31200000Y65900000D01*
X31475000Y66975000D02*
X31200000Y66700000D01*
X32400000Y66975000D02*
X31475000Y66975000D01*
X10000000Y66200000D02*
X9200000Y65400000D01*
X9200000Y65400000D02*
X8800000Y65400000D01*
X8800000Y65400000D02*
X7800000Y64400000D01*
X7800000Y64400000D02*
X7800000Y61600000D01*
X7800000Y61600000D02*
X6700000Y60500000D01*
X6700000Y60500000D02*
X4700000Y60500000D01*
X34800000Y70500000D02*
X34800000Y66425000D01*
X34800000Y66425000D02*
X34800000Y65310000D01*
X32400000Y66425000D02*
X34800000Y66425000D01*
X34800000Y65310000D02*
X37730000Y62380000D01*
X34400000Y70900000D02*
X34800000Y70500000D01*
X9000000Y66200000D02*
X7400000Y64600000D01*
X7400000Y64600000D02*
X7400000Y62000000D01*
X7400000Y62000000D02*
X6700000Y61300000D01*
X6700000Y61300000D02*
X4700000Y61300000D01*
X41400000Y71400000D02*
X41400000Y71800000D01*
X41400000Y71800000D02*
X40700000Y72500000D01*
X40700000Y72500000D02*
X39100000Y72500000D01*
X39100000Y72500000D02*
X38100000Y71500000D01*
X38100000Y71500000D02*
X38100000Y68700000D01*
X38100000Y68700000D02*
X40300000Y66500000D01*
X40300000Y66500000D02*
X42400000Y66500000D01*
X42400000Y66500000D02*
X42800000Y66100000D01*
X42800000Y66100000D02*
X43990000Y66100000D01*
X45600000Y66425000D02*
X44315000Y66425000D01*
X44315000Y66425000D02*
X43990000Y66100000D01*
X43990000Y66100000D02*
X43990000Y64990000D01*
X43990000Y64990000D02*
X43100000Y64100000D01*
X43100000Y64100000D02*
X41990000Y64100000D01*
X41990000Y64100000D02*
X40270000Y62380000D01*
D36*
X45600000Y66975000D02*
X46525000Y66975000D01*
X46525000Y66975000D02*
X46700000Y66800000D01*
X42810000Y63010000D02*
X42810000Y62380000D01*
X46700000Y66800000D02*
X46700000Y65900000D01*
X46700000Y65900000D02*
X46500000Y65700000D01*
X46500000Y65700000D02*
X45500000Y65700000D01*
X45500000Y65700000D02*
X42810000Y63010000D01*
X4700000Y62900000D02*
X4800000Y62800000D01*
X4800000Y62800000D02*
X6700000Y62800000D01*
D46*
X40500000Y71400000D02*
X40500000Y71900000D01*
X40500000Y71900000D02*
X40300000Y72100000D01*
X40300000Y72100000D02*
X39300000Y72100000D01*
X39300000Y72100000D02*
X38500000Y71300000D01*
X38500000Y71300000D02*
X38500000Y68900000D01*
X38500000Y68900000D02*
X40425000Y66975000D01*
X40425000Y66975000D02*
X45600000Y66975000D01*
D36*
X4700000Y63700000D02*
X4800000Y63800000D01*
X4800000Y63800000D02*
X6700000Y63800000D01*
D46*
X39600000Y71400000D02*
X38900000Y70700000D01*
X38900000Y70700000D02*
X38900000Y69100000D01*
X38900000Y69100000D02*
X40475000Y67525000D01*
X40475000Y67525000D02*
X45600000Y67525000D01*
D36*
X45600000Y67525000D02*
X46775000Y67525000D01*
X46775000Y67525000D02*
X47200000Y67100000D01*
X47200000Y67100000D02*
X47200000Y64230000D01*
X47200000Y64230000D02*
X45350000Y62380000D01*
D46*
X14800000Y63200000D02*
X15300000Y63700000D01*
X15300000Y63700000D02*
X16900000Y63700000D01*
X8300000Y34900000D02*
X8300000Y32200000D01*
X8300000Y34900000D02*
X8700000Y35300000D01*
X8700000Y35300000D02*
X8700000Y37500000D01*
X8700000Y37500000D02*
X8300000Y37900000D01*
X39600000Y69900000D02*
X39600000Y69100000D01*
X39600000Y69100000D02*
X40625000Y68075000D01*
X40625000Y68075000D02*
X45600000Y68075000D01*
D36*
X47025000Y68075000D02*
X47890000Y67210000D01*
X47890000Y67210000D02*
X47890000Y62380000D01*
X45600000Y68075000D02*
X47025000Y68075000D01*
D46*
X9000000Y39100000D02*
X9000000Y38100000D01*
X9000000Y38100000D02*
X9200000Y37900000D01*
X9200000Y37900000D02*
X9200000Y35100000D01*
X9200000Y35100000D02*
X8800000Y34700000D01*
X8800000Y34700000D02*
X8800000Y32200000D01*
X14300000Y62500000D02*
X15200000Y62500000D01*
X15200000Y62500000D02*
X15600000Y62900000D01*
X15600000Y62900000D02*
X16900000Y62900000D01*
X40500000Y69900000D02*
X41775000Y68625000D01*
X41775000Y68625000D02*
X45600000Y68625000D01*
D36*
X47275000Y68625000D02*
X50430000Y65470000D01*
X50430000Y65470000D02*
X50430000Y62380000D01*
X45600000Y68625000D02*
X47275000Y68625000D01*
D46*
X42325000Y69175000D02*
X45600000Y69175000D01*
X41600000Y69900000D02*
X42325000Y69175000D01*
X9700000Y38500000D02*
X9700000Y35000000D01*
X9700000Y35000000D02*
X9300000Y34600000D01*
X9300000Y34600000D02*
X9300000Y32200000D01*
X14800000Y61800000D02*
X15300000Y61800000D01*
X15600000Y62100000D02*
X16900000Y62100000D01*
X15300000Y61800000D02*
X15600000Y62100000D01*
D36*
X47625000Y69175000D02*
X52970000Y63830000D01*
X52970000Y63830000D02*
X52970000Y62380000D01*
X45600000Y69175000D02*
X47625000Y69175000D01*
D46*
X42600000Y70100000D02*
X43800000Y70100000D01*
X43800000Y70100000D02*
X43975000Y70275000D01*
X43975000Y70275000D02*
X45600000Y70275000D01*
X10400000Y39100000D02*
X10400000Y35100000D01*
X10400000Y35100000D02*
X9800000Y34500000D01*
X9800000Y34500000D02*
X9800000Y32200000D01*
X14300000Y61100000D02*
X15400000Y61100000D01*
X15400000Y61100000D02*
X15600000Y61300000D01*
X15600000Y61300000D02*
X16900000Y61300000D01*
X54000000Y73900000D02*
X51300000Y71200000D01*
X51300000Y71200000D02*
X48500000Y71200000D01*
X48500000Y71200000D02*
X47575000Y70275000D01*
X47575000Y70275000D02*
X45600000Y70275000D01*
X11100000Y38500000D02*
X11100000Y35200000D01*
X11100000Y35200000D02*
X10300000Y34400000D01*
X10300000Y34400000D02*
X10300000Y32200000D01*
X43400000Y70850000D02*
X45575000Y70850000D01*
X45575000Y70850000D02*
X45600000Y70825000D01*
X14800000Y60400000D02*
X16800000Y60400000D01*
X16800000Y60400000D02*
X16900000Y60500000D01*
X45600000Y70825000D02*
X47425000Y70825000D01*
X47425000Y70825000D02*
X48200000Y71600000D01*
X48200000Y71600000D02*
X50500000Y71600000D01*
X50500000Y71600000D02*
X52970000Y74070000D01*
X52970000Y74070000D02*
X52970000Y77620000D01*
X11800000Y39100000D02*
X11800000Y35200000D01*
X11800000Y35200000D02*
X11300000Y34700000D01*
X11300000Y34700000D02*
X11300000Y32200000D01*
X43400000Y72100000D02*
X44125000Y71375000D01*
X44125000Y71375000D02*
X45600000Y71375000D01*
X14300000Y59700000D02*
X16900000Y59700000D01*
X50430000Y77620000D02*
X50430000Y72930000D01*
X50430000Y72930000D02*
X49500000Y72000000D01*
X49500000Y72000000D02*
X47900000Y72000000D01*
X47900000Y72000000D02*
X47275000Y71375000D01*
X47275000Y71375000D02*
X45600000Y71375000D01*
X12500000Y38500000D02*
X12500000Y35300000D01*
X12500000Y35300000D02*
X11800000Y34600000D01*
X11800000Y34600000D02*
X11800000Y32200000D01*
X14800000Y59000000D02*
X16800000Y59000000D01*
X16800000Y59000000D02*
X16900000Y58900000D01*
X47900000Y72700000D02*
X49100000Y72700000D01*
X49100000Y72700000D02*
X50000000Y73600000D01*
X50000000Y73600000D02*
X50000000Y75510000D01*
X50000000Y75510000D02*
X47890000Y77620000D01*
X47900000Y72700000D02*
X47125000Y71925000D01*
X47125000Y71925000D02*
X45600000Y71925000D01*
X13200000Y39100000D02*
X13200000Y35400000D01*
X13200000Y35400000D02*
X12300000Y34500000D01*
X12300000Y34500000D02*
X12300000Y32200000D01*
X14300000Y58300000D02*
X15400000Y58300000D01*
X15400000Y58300000D02*
X15600000Y58100000D01*
X15600000Y58100000D02*
X16900000Y58100000D01*
X49500000Y73900000D02*
X49500000Y75200000D01*
X47300000Y73400000D02*
X46375000Y72475000D01*
X49000000Y73400000D02*
X49500000Y73900000D01*
X48600000Y73400000D02*
X49000000Y73400000D01*
X49500000Y75200000D02*
X48900000Y75800000D01*
X48900000Y75800000D02*
X47170000Y75800000D01*
X47170000Y75800000D02*
X45350000Y77620000D01*
X48600000Y73400000D02*
X47300000Y73400000D01*
X46375000Y72475000D02*
X45600000Y72475000D01*
D36*
X16800000Y45900000D02*
X16800000Y47800000D01*
D46*
X40100000Y65500000D02*
X37300000Y68300000D01*
X40100000Y65500000D02*
X40400000Y65500000D01*
X40400000Y65500000D02*
X41000000Y64900000D01*
X37300000Y68300000D02*
X37300000Y71900000D01*
X37300000Y71900000D02*
X39000000Y73600000D01*
X39400000Y79500000D02*
X40930000Y79500000D01*
X39000000Y73600000D02*
X39000000Y79100000D01*
X39000000Y79100000D02*
X39400000Y79500000D01*
X40930000Y79500000D02*
X42810000Y77620000D01*
D36*
X9100000Y54200000D02*
X9100000Y55900000D01*
X9100000Y55900000D02*
X9200000Y56000000D01*
D46*
X9100000Y54200000D02*
X8600000Y53700000D01*
X8600000Y53700000D02*
X8600000Y49900000D01*
X8600000Y49900000D02*
X7800000Y49100000D01*
X9100000Y54200000D02*
X9200000Y54300000D01*
X7800000Y49100000D02*
X7800000Y47800000D01*
D36*
X45600000Y73575000D02*
X40925000Y73575000D01*
X40925000Y73575000D02*
X40270000Y74230000D01*
X40270000Y74230000D02*
X40270000Y77620000D01*
X47900000Y74100000D02*
X47000000Y74100000D01*
X47000000Y74100000D02*
X46475000Y73575000D01*
X46475000Y73575000D02*
X45600000Y73575000D01*
D46*
X16300000Y46400000D02*
X16300000Y47800000D01*
X37730000Y73575000D02*
X37730000Y72930000D01*
X37730000Y72930000D02*
X36900000Y72100000D01*
X36900000Y72100000D02*
X36900000Y68100000D01*
X36900000Y68100000D02*
X39500000Y65500000D01*
X39500000Y65500000D02*
X39500000Y64100000D01*
X39500000Y64100000D02*
X39000000Y63600000D01*
X39000000Y63600000D02*
X39000000Y60100000D01*
X37730000Y73575000D02*
X37730000Y77620000D01*
X32400000Y73575000D02*
X37730000Y73575000D01*
X15800000Y45900000D02*
X16300000Y46400000D01*
X23700000Y65000000D02*
X23700000Y67600000D01*
X23700000Y67600000D02*
X26300000Y70200000D01*
X26300000Y70200000D02*
X26300000Y78800000D01*
X26300000Y78800000D02*
X26900000Y79400000D01*
X26900000Y79400000D02*
X33410000Y79400000D01*
X33410000Y79400000D02*
X35190000Y77620000D01*
D36*
X10100000Y54200000D02*
X10100000Y55900000D01*
X10100000Y55900000D02*
X10000000Y56000000D01*
D46*
X9000000Y49700000D02*
X8300000Y49000000D01*
X9000000Y53200000D02*
X9000000Y49700000D01*
X10000000Y54200000D02*
X9000000Y53200000D01*
X10100000Y54200000D02*
X10000000Y54200000D01*
X8300000Y49000000D02*
X8300000Y47800000D01*
D36*
X34400000Y75200000D02*
X35190000Y75990000D01*
X35190000Y75990000D02*
X35190000Y77620000D01*
X31800000Y75200000D02*
X34400000Y75200000D01*
X31200000Y74600000D02*
X31800000Y75200000D01*
X31200000Y73300000D02*
X31200000Y74600000D01*
X31475000Y73025000D02*
X31200000Y73300000D01*
X32400000Y73025000D02*
X31475000Y73025000D01*
D46*
X13600000Y66200000D02*
X11900000Y64500000D01*
X11900000Y64500000D02*
X11900000Y61700000D01*
X11900000Y61700000D02*
X8400000Y58200000D01*
X8400000Y58200000D02*
X8400000Y56000000D01*
X7300000Y47800000D02*
X7300000Y49200000D01*
X7300000Y49200000D02*
X8200000Y50100000D01*
X8200000Y50100000D02*
X8200000Y54400000D01*
X8200000Y54400000D02*
X8400000Y54600000D01*
X8400000Y54600000D02*
X8400000Y56000000D01*
X30700000Y73100000D02*
X30700000Y75670000D01*
X30700000Y75670000D02*
X32650000Y77620000D01*
X33500000Y72800000D02*
X35600000Y72800000D01*
X36400000Y72600000D02*
X35800000Y72600000D01*
X35800000Y72600000D02*
X35600000Y72800000D01*
X32400000Y72475000D02*
X33175000Y72475000D01*
X33175000Y72475000D02*
X33500000Y72800000D01*
X32400000Y72475000D02*
X31325000Y72475000D01*
X31325000Y72475000D02*
X30700000Y73100000D01*
X7600000Y56000000D02*
X7600000Y58000000D01*
X7600000Y58000000D02*
X11500000Y61900000D01*
X11500000Y61900000D02*
X11500000Y65000000D01*
X11500000Y65000000D02*
X12700000Y66200000D01*
X6800000Y47800000D02*
X6800000Y49300000D01*
X6800000Y49300000D02*
X7800000Y50300000D01*
X7800000Y50300000D02*
X7800000Y54400000D01*
X7800000Y54400000D02*
X7600000Y54600000D01*
X7600000Y54600000D02*
X7600000Y56000000D01*
X36000000Y71800000D02*
X35400000Y72400000D01*
X35400000Y72400000D02*
X33700000Y72400000D01*
X33700000Y72400000D02*
X33225000Y71925000D01*
X33225000Y71925000D02*
X32400000Y71925000D01*
X32400000Y71925000D02*
X31275000Y71925000D01*
X31275000Y71925000D02*
X30300000Y72900000D01*
X30300000Y72900000D02*
X30300000Y77430000D01*
X30300000Y77430000D02*
X30110000Y77620000D01*
X10200000Y52800000D02*
X10600000Y52800000D01*
X10600000Y52800000D02*
X11300000Y53500000D01*
X13200000Y53900000D02*
X13200000Y56000000D01*
X11300000Y53500000D02*
X12800000Y53500000D01*
X12800000Y53500000D02*
X13200000Y53900000D01*
X9800000Y52400000D02*
X9800000Y47800000D01*
X32400000Y71375000D02*
X33275000Y71375000D01*
X33275000Y71375000D02*
X33900000Y72000000D01*
X33900000Y72000000D02*
X34900000Y72000000D01*
X34900000Y72000000D02*
X35600000Y71300000D01*
X37600000Y65300000D02*
X38300000Y65300000D01*
X35600000Y71300000D02*
X35600000Y67300000D01*
X35600000Y67300000D02*
X37600000Y65300000D01*
X38300000Y65300000D02*
X38800000Y64800000D01*
X29900000Y72700000D02*
X29900000Y75290000D01*
X29900000Y75290000D02*
X27570000Y77620000D01*
X10200000Y52800000D02*
X9800000Y52400000D01*
X32400000Y71375000D02*
X31225000Y71375000D01*
X31225000Y71375000D02*
X29900000Y72700000D01*
X22300000Y65000000D02*
X22300000Y66900000D01*
X25030000Y75930000D02*
X25030000Y77620000D01*
X22300000Y66900000D02*
X25030000Y69630000D01*
X25030000Y69630000D02*
X25030000Y75930000D01*
D36*
X14000000Y53700000D02*
X14000000Y56000000D01*
D46*
X14000000Y53700000D02*
X13400000Y53100000D01*
X13400000Y53100000D02*
X11500000Y53100000D01*
X11500000Y53100000D02*
X10200000Y51800000D01*
X10200000Y51800000D02*
X10200000Y49200000D01*
X10200000Y49200000D02*
X10300000Y49100000D01*
X10300000Y49100000D02*
X10300000Y47800000D01*
X23000000Y64300000D02*
X25600000Y64300000D01*
X22300000Y65000000D02*
X23000000Y64300000D01*
X26000000Y64700000D02*
X26000000Y69200000D01*
X25600000Y64300000D02*
X26000000Y64700000D01*
X26000000Y69200000D02*
X26700000Y69900000D01*
X26700000Y69900000D02*
X30700000Y69900000D01*
X30700000Y69900000D02*
X30875000Y69725000D01*
X30875000Y69725000D02*
X32400000Y69725000D01*
X14000000Y68200000D02*
X14000000Y66800000D01*
X14000000Y66800000D02*
X14300000Y66500000D01*
X14300000Y66500000D02*
X14300000Y65900000D01*
X14300000Y65900000D02*
X12300000Y63900000D01*
X12300000Y63900000D02*
X12300000Y59000000D01*
X12300000Y59000000D02*
X13700000Y57600000D01*
X13700000Y57600000D02*
X15300000Y57600000D01*
X15300000Y57600000D02*
X16550000Y56350000D01*
X16550000Y56350000D02*
X21900000Y56350000D01*
D43*
X26250000Y54817500D02*
X25117500Y54817500D01*
X25117500Y54817500D02*
X24800000Y54500000D01*
X24800000Y54500000D02*
X22050000Y54500000D01*
X22050000Y54500000D02*
X21900000Y54650000D01*
D36*
X7600000Y24200000D02*
X4550000Y24200000D01*
X7600000Y24200000D02*
X8110000Y24710000D01*
X8110000Y24710000D02*
X9960000Y24710000D01*
D46*
X13800000Y33400000D02*
X13800000Y32200000D01*
X13200000Y34000000D02*
X13800000Y33400000D01*
D36*
X39000000Y25100000D02*
X37300000Y23400000D01*
X37300000Y23400000D02*
X17900000Y23400000D01*
X17900000Y23400000D02*
X16590000Y24710000D01*
X16590000Y24710000D02*
X15040000Y24710000D01*
X33400000Y52200000D02*
X32842500Y51642500D01*
X32842500Y51642500D02*
X31750000Y51642500D01*
X12900000Y22800000D02*
X12500000Y23200000D01*
X12500000Y23200000D02*
X12500000Y24710000D01*
X38000000Y22800000D02*
X12900000Y22800000D01*
X38000000Y22800000D02*
X39000000Y23800000D01*
X33107500Y57992500D02*
X33500000Y57600000D01*
X33500000Y57600000D02*
X33500000Y56722500D01*
X31750000Y57992500D02*
X33107500Y57992500D01*
X31750000Y56722500D02*
X33500000Y56722500D01*
D45*
X55000000Y56000000D02*
X53840000Y57160000D01*
X53840000Y57160000D02*
X48000000Y57160000D01*
X55000000Y53200000D02*
X55000000Y43040000D01*
X55000000Y43040000D02*
X48000000Y36040000D01*
D39*
X48350000Y53200000D02*
X55000000Y53200000D01*
D45*
X55000000Y53200000D02*
X55000000Y56000000D01*
D36*
X45500000Y59500000D02*
X45500000Y53100000D01*
X45500000Y53100000D02*
X47400000Y51200000D01*
X47400000Y51200000D02*
X48350000Y51200000D01*
D46*
X41700000Y66000000D02*
X40200000Y66000000D01*
X40200000Y66000000D02*
X37700000Y68500000D01*
X37700000Y68500000D02*
X37700000Y71700000D01*
X37700000Y71700000D02*
X39025000Y73025000D01*
X39025000Y73025000D02*
X45600000Y73025000D01*
X42800000Y64900000D02*
X41700000Y66000000D01*
X15300000Y46400000D02*
X15300000Y47800000D01*
X37800000Y64500000D02*
X35200000Y67100000D01*
X35200000Y67100000D02*
X35200000Y71100000D01*
X35200000Y71100000D02*
X34700000Y71600000D01*
X34700000Y71600000D02*
X34100000Y71600000D01*
X34100000Y71600000D02*
X33325000Y70825000D01*
X33325000Y70825000D02*
X32400000Y70825000D01*
X14800000Y45900000D02*
X15300000Y46400000D01*
D36*
X6700000Y66100000D02*
X4700000Y66100000D01*
D46*
X6700000Y38500000D02*
X5000000Y38500000D01*
X14800000Y53300000D02*
X14800000Y56000000D01*
X10800000Y47800000D02*
X10800000Y49300000D01*
X10800000Y49300000D02*
X10600000Y49500000D01*
X10600000Y49500000D02*
X10600000Y51600000D01*
X10600000Y51600000D02*
X11700000Y52700000D01*
X11700000Y52700000D02*
X14200000Y52700000D01*
X14200000Y52700000D02*
X14800000Y53300000D01*
X13000000Y63200000D02*
X15100000Y65300000D01*
X15100000Y65300000D02*
X16900000Y65300000D01*
X6700000Y42000000D02*
X6200000Y41500000D01*
X6200000Y41500000D02*
X5000000Y41500000D01*
X4000000Y49600000D02*
X4000000Y48800000D01*
X4000000Y48800000D02*
X7900000Y44900000D01*
X7900000Y44900000D02*
X13100000Y44900000D01*
X13100000Y44900000D02*
X13800000Y45600000D01*
X13800000Y45600000D02*
X13800000Y46000000D01*
X13800000Y46000000D02*
X14300000Y46500000D01*
X14300000Y46500000D02*
X14300000Y47800000D01*
X12300000Y66800000D02*
X12300000Y68100000D01*
X12300000Y68100000D02*
X12400000Y68200000D01*
X11700000Y66200000D02*
X12300000Y66800000D01*
X10100000Y62900000D02*
X10100000Y64200000D01*
X10100000Y64200000D02*
X11700000Y65800000D01*
X11700000Y65800000D02*
X11700000Y66200000D01*
D36*
X37200000Y53600000D02*
X35217500Y53600000D01*
X35217500Y53600000D02*
X34900000Y53917500D01*
X37700000Y53100000D02*
X37200000Y53600000D01*
X39100000Y53100000D02*
X37700000Y53100000D01*
X31750000Y54182500D02*
X34635000Y54182500D01*
X34635000Y54182500D02*
X34900000Y53917500D01*
X38300000Y54900000D02*
X36800000Y54900000D01*
X36800000Y54900000D02*
X36500000Y54600000D01*
X39100000Y55700000D02*
X38300000Y54900000D01*
X39100000Y57300000D02*
X39100000Y55700000D01*
X31750000Y54817500D02*
X36282500Y54817500D01*
X36282500Y54817500D02*
X36500000Y54600000D01*
D41*
X27300000Y74900000D02*
X27300000Y71600000D01*
X27300000Y71600000D02*
X27950000Y70950000D01*
X27950000Y70950000D02*
X29000000Y70950000D01*
D43*
X32400000Y70275000D02*
X31125000Y70275000D01*
X31125000Y70275000D02*
X30450000Y70950000D01*
X30450000Y70950000D02*
X29000000Y70950000D01*
X49160000Y60400000D02*
X45100000Y60400000D01*
X45100000Y60400000D02*
X44450000Y59750000D01*
X44450000Y59750000D02*
X44450000Y56450000D01*
X44450000Y56450000D02*
X44450000Y55700000D01*
D39*
X43650000Y53200000D02*
X44400000Y53200000D01*
X44400000Y53200000D02*
X44700000Y53500000D01*
X44700000Y53500000D02*
X44700000Y55450000D01*
X44700000Y55450000D02*
X44450000Y55700000D01*
D36*
X5300000Y29600000D02*
X5300000Y29150000D01*
X5300000Y29150000D02*
X4550000Y28400000D01*
D46*
X17400000Y37400000D02*
X17400000Y42000000D01*
X17400000Y42000000D02*
X14900000Y44500000D01*
X14900000Y44500000D02*
X7700000Y44500000D01*
X7700000Y44500000D02*
X5000000Y44500000D01*
D36*
X29380000Y31580000D02*
X29380000Y33000000D01*
X28840000Y31040000D02*
X29380000Y31580000D01*
X28840000Y26150000D02*
X28840000Y31040000D01*
D46*
X17400000Y36100000D02*
X13600000Y39900000D01*
X13600000Y39900000D02*
X7000000Y39900000D01*
X7000000Y39900000D02*
X6100000Y39000000D01*
X6100000Y39000000D02*
X5000000Y39000000D01*
D36*
X31380000Y26150000D02*
X31380000Y33000000D01*
D46*
X19000000Y39500000D02*
X20600000Y39500000D01*
X18700000Y39800000D02*
X18700000Y40500000D01*
X19000000Y39500000D02*
X18700000Y39800000D01*
D36*
X33920000Y31080000D02*
X33380000Y31620000D01*
X33380000Y31620000D02*
X33380000Y33000000D01*
X33920000Y26150000D02*
X33920000Y31080000D01*
D46*
X17400000Y43600000D02*
X18800000Y45000000D01*
X18800000Y45000000D02*
X20600000Y45000000D01*
D36*
X36460000Y26150000D02*
X36460000Y31920000D01*
X36460000Y31920000D02*
X33380000Y35000000D01*
X18500000Y19500000D02*
X18500000Y10400000D01*
X18500000Y10400000D02*
X19100000Y9800000D01*
X19100000Y9800000D02*
X20110000Y9800000D01*
X22650000Y9250000D02*
X22650000Y4300000D01*
X17300000Y33900000D02*
X17300000Y32200000D01*
X20110000Y9800000D02*
X22100000Y9800000D01*
X22100000Y9800000D02*
X22650000Y9250000D01*
X20110000Y4300000D02*
X20110000Y9800000D01*
X17570000Y11230000D02*
X17570000Y4300000D01*
X16800000Y12000000D02*
X17570000Y11230000D01*
X12600000Y12000000D02*
X16800000Y12000000D01*
X11800000Y11200000D02*
X12600000Y12000000D01*
D46*
X6700000Y36400000D02*
X6300000Y36000000D01*
X6300000Y36000000D02*
X5000000Y36000000D01*
X2500000Y22400000D02*
X7600000Y22400000D01*
X13000000Y21600000D02*
X17500000Y21600000D01*
X7600000Y22400000D02*
X8200000Y23000000D01*
X8200000Y23000000D02*
X11600000Y23000000D01*
X11600000Y23000000D02*
X13000000Y21600000D01*
X17500000Y21600000D02*
X19400000Y19700000D01*
X19400000Y19700000D02*
X19400000Y13700000D01*
X19400000Y13700000D02*
X24000000Y9100000D01*
X24000000Y9100000D02*
X24600000Y9100000D01*
X24600000Y9100000D02*
X25190000Y8510000D01*
X25190000Y8510000D02*
X25190000Y4300000D01*
X2500000Y31400000D02*
X2500000Y33800000D01*
X2500000Y33800000D02*
X3200000Y34500000D01*
X3200000Y34500000D02*
X3200000Y36400000D01*
X3200000Y36400000D02*
X3800000Y37000000D01*
X3800000Y37000000D02*
X5000000Y37000000D01*
X5300000Y31000000D02*
X5300000Y32500000D01*
X6000000Y34000000D02*
X5000000Y34000000D01*
X5300000Y32500000D02*
X6200000Y33400000D01*
X6200000Y33400000D02*
X6200000Y33800000D01*
X6200000Y33800000D02*
X6000000Y34000000D01*
X19900000Y20300000D02*
X19900000Y13900000D01*
X19900000Y13900000D02*
X24200000Y9600000D01*
X24200000Y9600000D02*
X27100000Y9600000D01*
X27100000Y9600000D02*
X27730000Y8970000D01*
X27730000Y8970000D02*
X27730000Y4300000D01*
D36*
X18300000Y33900000D02*
X17800000Y33400000D01*
X17800000Y33400000D02*
X17800000Y32200000D01*
X11230000Y22100000D02*
X11230000Y15330000D01*
X11230000Y15330000D02*
X10800000Y14900000D01*
X10800000Y14900000D02*
X9300000Y14900000D01*
X9300000Y14900000D02*
X8700000Y14300000D01*
X8700000Y14300000D02*
X8700000Y11200000D01*
X8700000Y11200000D02*
X9500000Y10400000D01*
X9500000Y10400000D02*
X11600000Y10400000D01*
X11600000Y10400000D02*
X12490000Y9510000D01*
X12490000Y9510000D02*
X12490000Y4300000D01*
D46*
X14300000Y34000000D02*
X14300000Y32200000D01*
D36*
X13300000Y46300000D02*
X13300000Y47800000D01*
X12600000Y45600000D02*
X13300000Y46300000D01*
X15030000Y10770000D02*
X15030000Y4300000D01*
X14600000Y11200000D02*
X15030000Y10770000D01*
X13000000Y11200000D02*
X14600000Y11200000D01*
X11800000Y46200000D02*
X11800000Y47800000D01*
D46*
X46300000Y64900000D02*
X45500000Y64900000D01*
X45500000Y64900000D02*
X44080000Y63480000D01*
X44080000Y63480000D02*
X44080000Y61080000D01*
X44080000Y61080000D02*
X41700000Y58700000D01*
X41700000Y58700000D02*
X41700000Y52500000D01*
X41700000Y52500000D02*
X42500000Y51700000D01*
X42500000Y51700000D02*
X43650000Y51700000D01*
D36*
X20000000Y79700000D02*
X21200000Y79700000D01*
X21200000Y79700000D02*
X21500000Y80000000D01*
X21500000Y80000000D02*
X53500000Y80000000D01*
X53500000Y80000000D02*
X54240000Y79260000D01*
X54240000Y79260000D02*
X54240000Y74960000D01*
X54240000Y74960000D02*
X54900000Y74300000D01*
X54900000Y74300000D02*
X54900000Y69600000D01*
X54900000Y69600000D02*
X53700000Y68400000D01*
X53700000Y68400000D02*
X49800000Y68400000D01*
D39*
X48350000Y52200000D02*
X51450000Y52200000D01*
X51450000Y52200000D02*
X51700000Y51950000D01*
D37*
X51700000Y51950000D02*
X53600000Y51950000D01*
D46*
X17300000Y46400000D02*
X17300000Y47800000D01*
X41300000Y59700000D02*
X41300000Y52300000D01*
X41300000Y52300000D02*
X42400000Y51200000D01*
X42400000Y51200000D02*
X43650000Y51200000D01*
X17300000Y46400000D02*
X17800000Y45900000D01*
D36*
X14800000Y68200000D02*
X14800000Y71250000D01*
X14800000Y71250000D02*
X14550000Y71500000D01*
X13200000Y72700000D02*
X13700000Y73200000D01*
X13700000Y73200000D02*
X14550000Y73200000D01*
X13200000Y68200000D02*
X13200000Y72700000D01*
X9200000Y71300000D02*
X7300000Y73200000D01*
X9200000Y68200000D02*
X9200000Y71300000D01*
X7300000Y73200000D02*
X6350000Y73200000D01*
X7600000Y68200000D02*
X7600000Y71200000D01*
X7300000Y71500000D02*
X6350000Y71500000D01*
X7600000Y71200000D02*
X7300000Y71500000D01*
M02*
